<svg xmlns="http://www.w3.org/2000/svg" version="1.1" xmlns:xlink="http://www.w3.org/1999/xlink" xmlns:svgjs="http://svgjs.com/svgjs" width="500px" height="500px"><svg version="1.0" xmlns="http://www.w3.org/2000/svg" width="500px" height="500px" viewBox="0 0 500 500" preserveAspectRatio="xMidYMid meet">
 <g fill="#401c31">
  <path d="M243.5 469.2 c-4.9 -3.7 -16.2 -12.2 -25 -18.8 -8.8 -6.6 -25 -18.7 -36 -26.9 -11 -8.1 -24.3 -18 -29.5 -22 -5.2 -3.9 -18 -13.4 -28.5 -21 -10.4 -7.6 -21.2 -16.2 -24 -19 -2.7 -2.8 -7.9 -9.7 -11.5 -15.4 -3.6 -5.7 -7.2 -11.4 -8 -12.6 -0.8 -1.3 -3.7 -5.9 -6.4 -10.2 -5.2 -8.1 -9.1 -14.3 -24.5 -38.1 -12 -18.7 -15.2 -24.7 -19.4 -36.2 -6.5 -18 -29.7 -89 -29.7 -91 0 -2.4 -0.6 -1.3 10.8 -20.5 4.9 -8.2 13.1 -22.4 18.2 -31.5 14.7 -26.2 16.8 -29.7 20 -32.8 2.4 -2.4 44.8 -31.4 66.5 -45.5 l4.3 -2.7 4.3 1.9 c5 2.1 18.3 8.4 38.4 18 7.7 3.7 19.6 9.4 26.5 12.7 13 6.1 31.3 15.3 53.2 26.8 7 3.6 13.8 6.6 15.1 6.6 2.1 0 6.3 -2.5 28.7 -17.3 12.4 -8.2 21.1 -12.4 47.5 -23.1 7.7 -3.2 14.9 -6.1 16 -6.6 14.1 -6.2 36.8 -15.1 37.9 -14.8 0.8 0.2 7.8 5.5 15.7 11.8 7.8 6.3 18.5 15 23.8 19.3 5.3 4.2 12.3 9.9 15.5 12.5 9.5 7.6 16.5 13.7 18.4 16.3 1 1.3 5 8.5 8.9 15.9 3.9 7.4 8.7 16.4 10.7 19.8 2 3.5 3.6 6.6 3.6 6.8 0 0.2 1.1 2.2 2.4 4.3 1.3 2 4.3 7.5 6.6 12 5.3 10.4 5.5 8.2 -5.6 58.1 -0.8 3.6 -2.5 11.7 -3.9 18 -1.3 6.3 -3.3 15.8 -4.5 21 -1.1 5.2 -2.7 12.9 -3.6 17 -2.3 11.6 -4.2 15.9 -11.3 24.5 -3.6 4.4 -6.7 8.2 -7 8.5 -0.6 0.5 -17.6 20.8 -36.5 43.5 -27.2 32.6 -29.3 34.7 -54 52.8 -8.3 6.1 -15.3 11.4 -15.6 11.7 -0.3 0.3 -2.1 1.7 -4 3 -1.9 1.3 -3.7 2.7 -4 3 -0.3 0.3 -4.8 3.7 -10 7.5 -14 10.1 -32.4 23.8 -33 24.5 -0.3 0.3 -8.1 6.1 -17.5 13 -9.3 6.8 -17.2 12.6 -17.5 12.9 -1.3 1.6 -11.8 9.1 -12.6 9.1 -0.5 0 -4.9 -3.1 -9.9 -6.8z m84.5 -57.7 l56.3 -42 -20.9 -20.2 c-11.4 -11.1 -21.1 -20 -21.5 -19.7 -0.8 0.4 -4.7 7.3 -42.9 73.9 -13.9 24.2 -26.2 45.5 -27.3 47.4 -1.1 1.9 -1.6 3.2 -1 3 0.5 -0.2 26.3 -19.3 57.3 -42.4z m-98.8 35.8 c-1.1 -1.6 -13.5 -20.6 -27.7 -42.3 -14.2 -21.7 -29.8 -45.6 -34.7 -53.2 l-8.9 -13.6 -19.2 9.2 c-10.6 5.1 -21.1 10.3 -23.5 11.5 l-4.3 2.2 28.8 21.4 c79 58.9 90.6 67.5 91 67.5 0.2 0 -0.4 -1.2 -1.5 -2.7z m43.3 -47.3 c7.3 -20.6 13.8 -38.8 14.4 -40.4 1.1 -2.8 1.1 -2.8 -1.1 -1.4 -1.3 0.8 -8.3 5 -15.5 9.2 l-13.3 7.8 0.1 33.7 c0 23.4 0.3 32.8 1 31.1 0.6 -1.4 7 -19.4 14.4 -40z m-25.5 5.6 l0 -30.3 -12.7 -5.7 c-6.9 -3.1 -12.8 -5.5 -12.9 -5.3 -0.4 0.3 24.9 71.7 25.3 71.7 0.2 0 0.3 -13.7 0.3 -30.4z m-28.5 -13.3 c-14.1 -39.4 -12.1 -35.4 -19.6 -38.5 -3.5 -1.4 -9.9 -4.2 -14.2 -6.2 -4.3 -2 -7.5 -3 -7.1 -2.4 0.4 0.7 6.2 9.6 12.9 19.8 6.6 10.2 17.9 27.4 24.9 38.3 7.1 10.9 13.1 19.6 13.3 19.3 0.2 -0.2 -4.4 -13.8 -10.2 -30.3z m85.7 -22.7 c10.4 -18 18.8 -33 18.6 -33.1 -0.2 -0.2 -4.6 2.2 -9.8 5.4 l-9.5 5.7 -10.2 28.5 c-9.9 27.5 -11.5 32.6 -9.1 28.4 0.6 -1.1 9.6 -16.8 20 -34.9z m-58 -47 l-0.7 -37 -13.4 31.9 c-7.4 17.5 -13 32 -12.5 32.2 0.5 0.2 6.8 3 13.9 6.2 7.4 3.3 13.1 5.3 13.2 4.7 0.2 -0.6 0 -17.7 -0.5 -38z m30 27 c14 -8.3 14.7 -8.9 13.6 -10.9 -0.6 -1.2 -6.9 -12.3 -14.1 -24.7 -7.1 -12.4 -14.3 -24.9 -15.9 -27.8 -1.7 -2.9 -3.3 -5.1 -3.5 -4.8 -0.3 0.3 -0.2 18.3 0.2 40.1 l0.8 39.6 2.1 -1.4 c1.1 -0.8 8.7 -5.3 16.8 -10.1z m125.3 -51 c6.4 -29.6 11.4 -54 11.3 -54.2 -0.2 -0.1 -14.6 16.3 -32 36.6 l-31.7 36.9 19.7 19.1 c16.5 16.2 19.7 18.9 20.4 17.4 0.4 -1.1 6 -26.1 12.3 -55.8z m-264.3 35.9 l13.8 -6.8 -2.3 -3.1 c-1.3 -1.7 -15.8 -21.8 -32.2 -44.6 -16.4 -22.8 -30 -41.7 -30.3 -42 -0.3 -0.3 -0.2 1.1 0.1 3 2.1 13.7 17.9 106.7 18.2 107.7 0.5 1.4 7.4 -1.7 32.7 -14.2z m299.2 -25.3 l28.6 -34.4 -3 -3.6 c-5 -6.2 -34.8 -36.7 -35.2 -36.2 -0.2 0.3 -5.7 25.3 -12.2 55.5 -6.5 30.3 -12 56.1 -12.4 57.5 -0.7 3 -3.4 6.1 34.2 -38.8z m-216.4 5.6 c6.8 -16.1 12.9 -30.8 13.7 -32.6 0.9 -2.1 1 -3.1 0.3 -2.7 -0.6 0.4 -14.8 11.6 -31.5 24.9 l-30.4 24.3 17.2 7.6 c9.5 4.2 17.5 7.7 17.8 7.7 0.4 0 6.2 -13.2 12.9 -29.2z m-132 3 c-1.6 -9 -5.6 -32.5 -8.9 -52.2 -3.4 -19.8 -6.3 -36.1 -6.4 -36.3 -0.6 -0.5 -28.7 30.5 -28.7 31.6 0 1 45.9 73.1 46.5 73.1 0.1 0 -1 -7.3 -2.5 -16.2z m227.4 8.5 c6.1 -3.6 11.7 -7.1 12.4 -7.6 0.9 -0.7 -6 -5.8 -26 -19.2 -15 -10 -28.6 -19 -30.3 -20.1 l-3 -1.9 1.6 2.5 c0.8 1.4 8.2 14.1 16.4 28.3 10.9 19 15.2 25.6 16.3 25.2 0.8 -0.3 6.5 -3.5 12.6 -7.2z m-115.5 -36 c19.6 -15.7 35.7 -28.8 35.9 -29.2 0.2 -0.6 -8.5 -2.8 -61.8 -15.7 -12.9 -3.1 -30.5 -7.3 -39 -9.4 -8.5 -2.2 -15.6 -3.8 -15.7 -3.6 -0.2 0.1 9.4 19.9 21.2 44 14.1 28.6 21.9 43.5 22.7 43 0.6 -0.4 17.1 -13.5 36.7 -29.1z m160.5 -21.8 c11.8 -22 21.3 -40.1 21.2 -40.2 -0.2 -0.2 -17 4.3 -102.6 27.7 -6.3 1.7 -12.1 3.3 -12.9 3.6 -1.5 0.5 70.6 49.4 72.2 49.1 0.4 -0.1 10.4 -18.2 22.1 -40.2z m33.5 -22 c18.8 -21.8 18.6 -21.3 8.5 -21.4 l-5 -0.1 -8.4 15.8 c-4.5 8.6 -9.9 18.6 -11.8 22.2 -4.3 8 -4.2 7.9 16.7 -16.5z m-276.4 11.3 c-0.7 -1.8 -4.3 -9.2 -7.9 -16.5 -6.2 -12.6 -6.7 -13.2 -10.3 -14.2 -7.6 -2.1 -8.4 -3.9 11.1 23.2 4.2 5.9 7.9 10.7 8.1 10.7 0.2 0 -0.2 -1.5 -1 -3.2z m343 -48.4 c-2 -23 -3.7 -42 -3.8 -42.1 -0.2 -0.1 -6 11.8 -13 26.4 l-12.7 26.5 16.2 17.2 c10.4 10.9 16.4 16.5 16.6 15.5 0.2 -0.8 -1.3 -20.4 -3.3 -43.5z m-298.5 -0.9 c-30.5 -19.5 -55.5 -35.3 -55.6 -35.2 -0.2 0.1 1 10.1 2.7 22.2 1.6 12.1 2.9 22.3 2.9 22.6 0 0.4 1.9 1.1 4.3 1.7 24.1 5.8 74.9 18.1 85.2 20.7 7.2 1.8 13.6 3.3 14.4 3.4 0.8 0.1 -23.5 -15.9 -53.9 -35.4z m321 -8.9 c4.5 -20.8 8 -37.9 7.8 -38.1 -0.8 -0.6 -24.1 -7.6 -24.4 -7.3 -0.2 0.2 0.3 7.6 1.1 16.3 0.8 8.8 2.4 28.3 3.7 43.4 1.2 15.5 2.5 26.5 3 25.5 0.4 -1.1 4.4 -18.9 8.8 -39.8z m-419.1 19.4 l4.8 -5.5 -11.2 -22.8 -11.2 -22.8 -0.6 16.8 c-0.4 9.2 -0.9 25.6 -1.2 36.3 l-0.6 19.5 7.6 -8 c4.2 -4.4 9.7 -10.5 12.4 -13.5z m278.6 7.9 c24.8 -6.7 45.4 -12.6 45.8 -13 0.9 -0.7 8.8 -33.1 8.3 -33.6 -0.2 -0.2 -92.9 53.5 -101.1 58.6 l-2 1.2 2 -0.5 c1.1 -0.2 22.3 -5.9 47 -12.7z m-117.9 -0.1 c-30 -50.8 -51 -84.8 -52 -84.5 -0.6 0.2 -14.3 4.8 -30.4 10.2 -16.1 5.3 -29.1 9.9 -28.8 10.2 0.4 0.5 117.6 75.9 118.3 76.2 0.1 0.1 -3.1 -5.4 -7.1 -12.1z m89.4 -12.8 c70.3 -40.8 78 -45.4 77.3 -46.1 -1.1 -1 -53.2 -24.9 -54.3 -24.9 -0.4 0 -14.7 20.4 -31.6 45.3 -16.9 24.8 -31.6 46.5 -32.8 48.2 l-2.1 2.9 3.5 -2.1 c1.9 -1.1 19.9 -11.6 40 -23.3z m-27.1 -20.3 c34.3 -50.5 30.8 -45.1 28.5 -43.9 -1.1 0.5 -14.3 6.5 -29.4 13.2 -15.1 6.7 -27.8 12.4 -28.1 12.8 -0.4 0.4 -0.9 14.6 -1.3 31.7 -0.4 18.8 -0.3 30.6 0.2 30 0.5 -0.6 14.1 -20.3 30.1 -43.8z m-40.5 12.3 l0.6 -30.5 -26.6 -12.8 c-14.7 -7 -26.8 -12.6 -26.9 -12.5 -0.1 0.2 11.5 19.8 25.8 43.6 14.3 23.8 26.1 43.1 26.2 43 0.1 -0.2 0.5 -14 0.9 -30.8z m-212 -1.5 c0.3 -13.7 0.9 -31.2 1.3 -38.7 l0.6 -13.8 -13.6 4.8 c-7.6 2.6 -13.5 5.2 -13.3 5.7 0.2 0.6 5.4 16.4 11.7 35.2 6.2 18.8 11.6 33.7 12 33 0.3 -0.7 0.9 -12.4 1.3 -26.2z m376.9 -2.2 c-3.3 -9.9 -4.8 -13.2 -5.3 -11.7 -1.8 4.9 -5.2 22.5 -4.6 23.2 0.4 0.4 3.8 1 7.4 1.3 3.7 0.3 6.8 0.7 6.9 0.7 0.1 0.1 -1.9 -6 -4.4 -13.5z m-312.7 -3.3 c-1.1 -8.8 -2.3 -16 -2.6 -16 -0.9 0 -11.2 27.2 -10.5 27.8 0.7 0.8 11.2 3.9 13.5 4.1 1.4 0.1 1.4 -1.7 -0.4 -15.9z m347.4 -37.6 l1.8 -4.2 -7.1 2.9 c-24.6 9.6 -27.2 10.8 -27.1 12.1 0.1 0.7 2.5 8.7 5.5 17.6 l5.4 16.3 9.8 -20.3 c5.5 -11.2 10.7 -22.2 11.7 -24.4z m-361 16.3 c7.9 -20 8.5 -22 14.1 -49 3.2 -15.5 5.7 -28.2 5.6 -28.3 -0.4 -0.3 -53.3 43.6 -54.1 44.9 -0.7 1.1 2.7 9 12 28 7.1 14.7 13.2 26.3 13.5 25.9 0.3 -0.4 4.3 -10.1 8.9 -21.5z m163.2 -25.3 l0.3 -8.1 -16 -0.7 c-8.8 -0.4 -18.2 -0.9 -21 -1.2 -4.6 -0.4 -3.4 0.3 15 9.4 11 5.5 20.3 9.6 20.7 9.3 0.3 -0.3 0.8 -4.3 1 -8.7z m33.6 -0.8 c11.1 -5 20 -9.1 19.9 -9.2 -0.4 -0.4 -41.1 1.9 -41.6 2.3 -0.3 0.2 -0.7 4.1 -1 8.7 -0.5 7.3 -0.4 8.3 0.9 7.7 0.9 -0.3 10.7 -4.6 21.8 -9.5z m151.5 -1.3 l21.7 -8.7 -0.2 -23.5 -0.3 -23.6 -26.5 -0.5 c-14.6 -0.3 -26.7 -0.4 -26.9 -0.3 -0.4 0.3 7.7 61.5 8.5 64.1 0.2 0.6 0.7 1.2 1.1 1.2 0.4 0 10.6 -3.9 22.6 -8.7z m-38.7 -21.9 l-4.1 -29.1 -13.5 10.4 c-7.4 5.8 -17.4 13.5 -22.2 17.3 l-8.7 6.7 26.2 12.1 c14.4 6.7 26.2 12 26.3 11.9 0.1 -0.1 -1.7 -13.3 -4 -29.3z m-259.6 14.1 c14.6 -4.8 26.9 -9.1 27.3 -9.5 0.4 -0.4 -9.4 -8.9 -22 -18.8 -12.5 -10 -22.8 -18 -22.9 -17.9 -0.3 0.2 -11.4 54.5 -11.4 55.4 0 0.3 0.6 0.3 1.3 0.1 0.6 -0.3 13.1 -4.5 27.7 -9.3z m347.7 0.3 c-1.4 -2.4 -5.7 -10.4 -9.7 -17.8 -4 -7.4 -7.4 -13.7 -7.7 -13.9 -0.2 -0.3 -0.2 6.4 -0.1 14.9 l0.3 15.4 8.5 2.8 c11.4 3.6 11.6 3.6 8.7 -1.4z m-240.7 -10.3 c0 -0.9 -35.3 -53.5 -35.7 -53.2 -0.2 0.2 -5 11.6 -10.6 25.3 l-10.3 24.9 6.4 0.8 c12.5 1.4 50.2 3.1 50.2 2.2z m58.4 -1 c13.1 -0.8 24 -1.6 24.2 -1.8 0.4 -0.3 -22.1 -48.5 -23 -49.5 -0.4 -0.3 -33.5 49.3 -34.3 51.5 -0.7 1.7 3 1.7 33.1 -0.2z m-225.9 -22.6 c13.5 -11.1 24.4 -20.3 24.2 -20.5 -0.9 -0.9 -42.1 -6.4 -42.7 -5.7 -0.4 0.4 -2 10.2 -3.4 21.8 -1.5 11.6 -3 21.8 -3.2 22.8 -0.3 0.9 -0.3 1.7 0 1.7 0.4 0 11.6 -9.1 25.1 -20.1z m284.9 -1.4 c16.2 -12.5 20.3 -16.1 18.9 -16.7 -3.5 -1.4 -63.5 -14.9 -64 -14.4 -0.3 0.3 2.9 7.8 7.2 16.8 4.2 9 9.3 19.8 11.3 24 2.4 5.2 3.9 7.5 4.7 7 0.7 -0.4 10.5 -7.9 21.9 -16.7z m-175.3 -6.7 c6.9 -16.7 9.2 -23.4 8.2 -23.6 -1.5 -0.4 -58.9 9.5 -61.6 10.6 -1.5 0.6 2.6 4.3 20.4 18.5 12.2 9.7 22.5 17.7 22.8 17.7 0.4 0 5 -10.5 10.2 -23.2z m68 -2.9 c-0.9 -1 -26.1 -13.7 -26.1 -13.2 0 0.2 5.5 8.6 12.3 18.5 l12.2 18.1 1.1 -11.4 c0.6 -6.3 0.8 -11.7 0.5 -12z m20.2 2.8 l9.6 -14.7 -8.9 6 c-8.5 5.7 -8.9 6.1 -9.4 10.2 -1.2 10.4 -1.6 14.1 -1.2 13.7 0.2 -0.2 4.6 -7 9.9 -15.2z m171.2 -17.6 c-2.1 -2.1 -47.9 -39 -48.1 -38.8 -0.2 0.1 0.7 8.9 1.9 19.4 l2.1 19.2 5 0.4 c11.8 0.8 40 0.7 39.1 -0.2z m-55.5 -3.3 c0 -0.7 -1 -10.4 -2.1 -21.4 l-2.2 -20.2 -13.1 5.5 c-7.2 3 -21.5 8.9 -31.8 13 -10.4 4.2 -18.5 7.9 -18.2 8.2 0.4 0.5 63.3 15.5 66.7 16 0.4 0.1 0.7 -0.5 0.7 -1.1z m-279 -2.5 c0 -0.5 1.1 -9.1 2.4 -19.3 1.3 -10.2 2.3 -18.6 2.2 -18.7 -0.1 -0.1 -11.1 7 -24.4 15.9 -13.3 8.9 -24 16.3 -23.8 16.5 0.5 0.5 37.1 6 40.9 6.2 1.5 0.1 2.7 -0.2 2.7 -0.6z m42 -4.8 c14.6 -2.5 29.2 -5.1 32.5 -5.8 l5.9 -1.2 -20.9 -9.9 c-11.6 -5.4 -26 -12.2 -32.1 -15.1 l-11 -5.2 -2.3 18.6 c-1.3 10.2 -2.5 19.9 -2.8 21.4 -0.5 2.5 -0.3 2.8 1.8 2.3 1.3 -0.3 14.3 -2.6 28.9 -5.1z"></path>
 </g>
 <g fill="#a292b3">
  <path d="M257 468.7 c0 -0.3 44.4 -77.8 71.8 -125.4 4.2 -7.3 8 -13.3 8.4 -13.3 0.9 0 1.1 5.2 0.2 7.4 -0.3 0.9 -1.2 1.6 -2 1.6 -0.8 0 -1.4 1 -1.4 2.5 0 1.8 -0.5 2.5 -2 2.5 -1.6 0 -2 0.7 -2 3.4 0 1.9 -0.6 4.1 -1.4 4.8 -0.7 0.8 -1.7 2.4 -2 3.6 -0.4 1.3 -1.6 2.2 -2.7 2.2 -1.5 0 -1.9 0.7 -1.9 3.5 0 2.4 -0.5 3.5 -1.5 3.5 -0.8 0 -1.5 0.9 -1.5 1.9 0 3 -1.1 5.1 -2.6 5.1 -0.8 0 -1.4 0.9 -1.4 1.9 0 3 -1.1 5.1 -2.6 5.1 -0.8 0 -1.4 0.9 -1.4 1.9 0 3 -1.1 5.1 -2.6 5.1 -0.8 0 -1.4 1 -1.4 2.5 0 1.8 -0.5 2.5 -2 2.5 -1.6 0 -2 0.7 -2 3.5 0 2.8 -0.4 3.5 -2 3.5 -1.6 0 -2 0.7 -2 3.5 0 2.8 -0.4 3.5 -2 3.5 -1.6 0 -2 0.7 -2 3.5 0 2.8 -0.4 3.5 -2 3.5 -1.6 0 -2 0.7 -2 3.5 0 2.4 -0.5 3.5 -1.5 3.5 -0.8 0 -1.5 0.9 -1.5 1.9 0 3 -1.1 5.1 -2.6 5.1 -0.8 0 -1.4 0.9 -1.4 1.9 0 3 -1.1 5.1 -2.6 5.1 -0.8 0 -1.4 1 -1.4 2.5 0 1.8 -0.5 2.5 -2 2.5 -1.6 0 -2 0.7 -2 3.5 0 2.8 -0.4 3.5 -2 3.5 -1.6 0 -2 0.7 -2 3.5 0 2.8 -0.4 3.5 -2 3.5 -1.6 0 -2 0.7 -2 3.5 0 2.8 -0.4 3.5 -2 3.5 -1.5 0 -2 0.7 -2 2.6 0 1.5 -0.8 3.3 -1.7 4.1 -2.3 1.7 -5.3 3.5 -5.3 3z"></path>
  <path d="M205.9 437.2 c-21.9 -16.3 -53.9 -40.3 -71.3 -53.2 -29.4 -21.9 -31.4 -23.6 -29.3 -24.7 1.2 -0.6 2.3 -0.8 2.5 -0.2 0.2 0.5 1 0.9 1.7 0.9 0.8 0 1.8 0.6 2.2 1.3 0.4 0.8 1.6 1.6 2.5 2 1.1 0.4 1.8 1.7 1.8 3.2 0 2.2 0.4 2.5 3.5 2.5 2.2 0 3.8 0.6 4.1 1.5 0.4 0.8 1.2 1.5 2 1.5 0.8 0 1.4 0.7 1.4 1.5 0 0.8 0.9 1.5 2 1.5 1.1 0 2 0.7 2 1.5 0 0.8 0.9 1.5 2 1.5 1.1 0 2 0.7 2 1.5 0 0.8 0.9 1.5 2 1.5 1.1 0 2 0.5 2 1 0 0.6 0.7 1 1.5 1 0.9 0 1.8 0.7 2.1 1.5 0.4 0.8 1.3 1.5 2 1.5 0.8 0 1.7 0.7 2 1.5 0.4 0.8 1.3 1.5 2 1.5 0.8 0 1.7 0.7 2 1.5 0.4 0.8 1.3 1.5 2 1.5 0.8 0 1.7 0.7 2 1.5 0.4 0.8 1.3 1.5 2 1.5 0.8 0 1.7 0.7 2 1.5 0.4 0.8 1.3 1.5 2 1.5 0.8 0 1.7 0.7 2 1.5 0.4 0.8 1.3 1.5 2 1.5 0.8 0 1.7 0.7 2 1.5 0.4 0.8 1.2 1.5 2 1.5 0.8 0 1.4 0.7 1.4 1.5 0 0.8 0.9 1.5 2 1.5 1.1 0 2 0.7 2 1.5 0 0.8 0.9 1.5 2 1.5 1.1 0 2 0.7 2 1.5 0 0.8 0.9 1.5 2 1.5 1.1 0 2 0.7 2 1.5 0 0.8 0.9 1.5 2 1.5 1.1 0 2 0.7 2 1.5 0 0.8 0.9 1.5 2 1.5 1.1 0 2 0.5 2 1 0 0.6 0.7 1 1.5 1 0.9 0 1.8 0.7 2.1 1.5 0.4 0.8 1.3 1.5 2 1.5 0.8 0 1.7 0.7 2 1.5 0.4 0.8 1.3 1.5 2 1.5 0.8 0 1.7 0.7 2 1.5 0.4 0.8 1.3 1.5 2 1.5 0.8 0 1.7 0.7 2 1.5 0.4 0.8 1.2 1.5 2 1.5 0.8 0 1.4 0.7 1.4 1.5 0 0.8 0.9 1.5 2 1.5 1.1 0 2 0.7 2 1.5 0 0.8 0.9 1.5 2 1.5 1.1 0 2 0.7 2 1.5 0 0.8 0.9 1.5 2 1.5 1.1 0 2.3 0.7 2.6 1.5 0.4 0.8 1.2 1.5 2 1.5 0.8 0 1.4 0.5 1.4 1 0 0.6 0.7 1 1.5 1 0.7 0 1.9 0.8 2.4 1.8 1 1.6 1 1.6 1.1 0 0 -1 -0.4 -1.8 -1 -1.8 -0.5 0 -1 -0.7 -1 -1.5 0 -0.8 -0.4 -1.5 -1 -1.5 -0.5 0 -1 -0.7 -1 -1.5 0 -0.8 -0.4 -1.5 -1 -1.5 -0.5 0 -1 -0.7 -1 -1.5 0 -0.8 -0.4 -1.5 -1 -1.5 -0.5 0 -1 -0.7 -1 -1.5 0 -0.8 -0.4 -1.5 -1 -1.5 -0.5 0 -1 -0.5 -1 -1 0 -0.6 -0.9 -2.1 -2 -3.3 -1.2 -1.2 -2.3 -3.2 -2.6 -4.4 -0.4 -1.3 -1 -2.3 -1.5 -2.3 -0.5 0 -0.9 -0.7 -0.9 -1.5 0 -0.8 -0.4 -1.5 -1 -1.5 -0.5 0 -1 -0.7 -1 -1.5 0 -0.8 -0.4 -1.5 -1 -1.5 -0.5 0 -1 -0.7 -1 -1.5 0 -0.8 -0.4 -1.5 -1 -1.5 -0.5 0 -1 -0.7 -1 -1.5 0 -0.8 -0.4 -1.5 -1 -1.5 -0.5 0 -1 -0.7 -1 -1.5 0 -0.8 -0.4 -1.5 -1 -1.5 -0.5 0 -1 -0.7 -1 -1.5 0 -0.8 -0.4 -1.5 -1 -1.5 -0.5 0 -1.2 -1.1 -1.6 -2.5 -0.3 -1.4 -1 -2.5 -1.5 -2.5 -0.5 0 -0.9 -0.7 -0.9 -1.5 0 -0.8 -0.4 -1.5 -1 -1.5 -0.5 0 -1 -0.7 -1 -1.5 0 -0.8 -0.4 -1.5 -1 -1.5 -0.5 0 -1 -0.7 -1 -1.5 0 -0.8 -0.4 -1.5 -1 -1.5 -0.5 0 -1 -0.7 -1 -1.5 0 -0.8 -0.4 -1.5 -1 -1.5 -0.5 0 -1 -0.7 -1 -1.5 0 -0.8 -0.4 -1.5 -1 -1.5 -0.5 0 -1 -0.5 -1 -1 0 -0.6 -0.9 -2.1 -2 -3.3 -1.2 -1.2 -2.3 -3.2 -2.6 -4.4 -0.4 -1.3 -1 -2.3 -1.5 -2.3 -0.5 0 -0.9 -0.7 -0.9 -1.5 0 -0.8 -0.4 -1.5 -1 -1.5 -0.5 0 -1 -0.7 -1 -1.5 0 -0.8 -0.4 -1.5 -1 -1.5 -0.5 0 -1 -0.7 -1 -1.5 0 -0.8 -0.4 -1.5 -1 -1.5 -0.5 0 -1 -0.5 -1 -1 0 -0.6 -0.9 -2 -2 -3.2 -1.1 -1.2 -2 -3.2 -2 -4.5 0 -1.4 -0.6 -2.3 -1.5 -2.3 -0.8 0 -1.5 -0.7 -1.5 -1.5 0 -0.8 -0.4 -1.5 -1 -1.5 -0.5 0 -1 -0.7 -1 -1.5 0 -0.8 -0.4 -1.5 -1 -1.5 -0.5 0 -1 -0.7 -1 -1.5 0 -0.8 -0.4 -1.5 -1 -1.5 -0.5 0 -1 -0.7 -1 -1.5 0 -0.8 -0.4 -1.5 -1 -1.5 -0.5 0 -1 -0.6 -1 -1.4 0 -2.2 -2.9 -2.7 -6 -1.1 -1.6 0.8 -4 1.5 -5.5 1.5 -1.6 0 -2.5 0.6 -2.5 1.5 0 1 -1.1 1.5 -3.5 1.5 -1.9 0 -3.5 -0.4 -3.5 -1 0 -0.9 19.9 -11.5 20.5 -10.8 0.4 0.4 17.6 26.7 53.5 81.8 16.6 25.6 31.2 47.7 32.2 49.3 1.1 1.5 1.6 2.7 1.1 2.6 -0.4 0 -18.6 -13.4 -40.4 -29.7z"></path>
  <path d="M253.8 461.4 c-0.3 -0.5 -0.2 -3.6 0.2 -6.9 0.6 -5.4 5.4 -19.8 28.9 -85.2 3.3 -9.1 3.7 -11.1 2.3 -10.6 -0.9 0.4 -2.2 1.2 -2.9 1.9 -0.6 0.6 -6.4 4.1 -12.7 7.8 l-11.6 6.8 0 14.4 c0 13.7 -0.1 14.4 -2 14.4 -1.9 0 -2 -0.7 -2 -15.9 l0 -15.9 19.2 -11.3 c21.8 -13 20.8 -12.4 20.8 -11 0 0.6 -8.1 23.9 -18.1 51.9 -22.5 63.5 -21.5 60.7 -22.1 59.6z"></path>
  <path d="M271 456.1 c0 -2.4 0.4 -3.1 2 -3.1 1.1 0 2 -0.7 2 -1.5 0 -0.8 0.9 -1.5 2 -1.5 1.1 0 2 -0.7 2 -1.5 0 -0.8 0.9 -1.5 2 -1.5 1.1 0 2 -0.7 2 -1.5 0 -0.8 0.9 -1.5 2 -1.5 1.1 0 2 -0.7 2 -1.5 0 -0.8 0.9 -1.5 2 -1.5 1.1 0 2 -0.7 2 -1.5 0 -0.8 0.9 -1.5 2 -1.5 1.1 0 2 -0.7 2 -1.5 0 -0.8 0.9 -1.5 2 -1.5 1.1 0 2 -0.7 2 -1.5 0 -0.8 0.9 -1.5 2 -1.5 1.1 0 2 -0.7 2 -1.5 0 -0.8 0.9 -1.5 2 -1.5 1.1 0 2 -0.7 2 -1.5 0 -1 1.1 -1.5 3.5 -1.5 3.1 0 3.5 -0.3 3.5 -2.5 0 -1.8 0.5 -2.5 2 -2.5 1.1 0 2 -0.7 2 -1.5 0 -0.8 0.9 -1.5 2 -1.5 1.1 0 2 -0.7 2 -1.5 0 -0.8 0.9 -1.5 2 -1.5 1.1 0 2 -0.7 2 -1.5 0 -0.8 0.9 -1.5 2 -1.5 1.1 0 2 -0.7 2 -1.5 0 -0.8 0.9 -1.5 2 -1.5 1.1 0 2 -0.7 2 -1.5 0 -0.8 0.9 -1.5 2 -1.5 1.1 0 2 -0.7 2 -1.5 0 -0.8 0.9 -1.5 2 -1.5 1.1 0 2 -0.7 2 -1.5 0 -0.8 0.9 -1.5 2 -1.5 1.1 0 2 -0.7 2 -1.5 0 -0.8 0.9 -1.5 2 -1.5 1.1 0 2 -0.7 2 -1.5 0 -0.8 0.9 -1.5 2 -1.5 1.1 0 2 -0.7 2 -1.5 0 -1 1.1 -1.5 3.5 -1.5 1.9 0 3.5 0.2 3.5 0.5 0 0.3 -19.7 15.2 -43.7 33.2 -24.1 17.9 -44.4 33 -45 33.6 -1 0.7 -1.3 0.2 -1.3 -2.2z"></path>
  <path d="M231.3 435.3 c-11.5 -17.8 -27.3 -42 -55 -84.5 -5.1 -7.8 -9.1 -14.4 -8.8 -14.6 0.4 -0.4 39.4 16.5 40.8 17.8 0.7 0.6 8 20.6 22.7 62 2.6 7.4 6.8 19.2 9.3 26.3 2.5 7 4.4 12.7 4.2 12.7 -0.1 0 -6.1 -8.9 -13.2 -19.7z m-3.9 -16.5 c-0.3 -1.3 -1.5 -4.5 -2.5 -7.3 -1.1 -2.7 -1.9 -6 -1.9 -7.2 0 -1.3 -0.3 -2.3 -0.8 -2.3 -0.4 0 -4.3 -10.1 -8.7 -22.5 l-8 -22.5 -5.2 -2.1 c-2.9 -1.2 -5.3 -2.5 -5.3 -3 0 -0.5 -0.8 -0.9 -1.9 -0.9 -1 0 -4.9 -1.4 -8.6 -3.1 -3.7 -1.6 -7 -2.8 -7.3 -2.5 -0.3 0.3 0 0.6 0.6 0.6 0.7 0 1.2 0.7 1.2 1.5 0 0.8 0.5 1.5 1 1.5 0.6 0 1 0.7 1 1.5 0 0.8 0.5 1.5 1 1.5 0.6 0 1 0.7 1 1.5 0 0.8 0.5 1.5 1 1.5 0.6 0 1 0.5 1 1.1 0 0.6 0.7 1.7 1.5 2.5 0.8 0.9 1.5 2.4 1.5 3.5 0 1 0.6 1.9 1.4 1.9 0.8 0 1.8 0.9 2.1 2.1 0.4 1.2 1.6 3 2.6 4 1 1 1.9 2.6 1.9 3.4 0 0.8 0.5 1.5 1 1.5 0.6 0 1 0.7 1 1.5 0 0.8 0.5 1.5 1 1.5 0.6 0 1 0.7 1 1.5 0 0.8 0.5 1.5 1 1.5 0.6 0 1 0.7 1 1.5 0 0.8 0.5 1.5 1 1.5 0.6 0 1 0.7 1 1.5 0 0.8 0.4 1.5 1 1.5 0.5 0 1.2 1.1 1.6 2.5 0.3 1.4 1 2.5 1.5 2.5 0.5 0 0.9 0.7 0.9 1.5 0 0.8 0.5 1.5 1 1.5 0.6 0 1 0.7 1 1.5 0 0.8 0.5 1.5 1 1.5 0.6 0 1 0.7 1 1.5 0 0.8 0.5 1.5 1 1.5 0.6 0 1 0.7 1 1.5 0 0.8 0.5 1.5 1 1.5 0.6 0 1 0.6 1 1.4 0 0.8 0.4 1.6 0.8 1.8 1.3 0.5 8.2 11.1 8.2 12.5 0 0.7 0.5 1.3 1.1 1.3 0.6 0 0.8 -0.9 0.3 -2.2z"></path>
  <path d="M248.7 453.3 c-1.4 -2.5 -33.9 -95.4 -33.5 -95.8 0.3 -0.3 8.2 2.9 17.6 7.1 16.2 7.2 20.7 10.4 14.8 10.4 -2.6 0 -15.9 -5.7 -16.4 -7.1 -0.2 -0.5 -1.3 -0.9 -2.3 -0.9 -1.1 0 -2.9 -0.5 -4.1 -1.1 -1.1 -0.6 -2.2 -0.9 -2.4 -0.6 -0.4 0.4 18.2 53.9 22.1 63.7 1.3 3.3 1.4 3 1.4 -7.2 0.1 -10.1 0.2 -10.8 2.1 -10.8 1.9 0 2 0.7 2 21.5 0 11.8 -0.2 21.5 -0.4 21.5 -0.3 0 -0.7 -0.3 -0.9 -0.7z"></path>
  <path d="M265.4 443.5 c0.3 -1.1 8.4 -23.8 17.8 -50.4 l17.3 -48.5 16.4 -9.8 c9 -5.4 16.6 -9.7 16.8 -9.4 0.2 0.2 -10 18.6 -22.7 40.8 -12.8 22.1 -28 48.6 -33.8 58.8 -10.5 18.5 -13 22.3 -11.8 18.5z m21.6 -43.7 c0 -1.6 25 -45.2 26.1 -45.6 0.5 -0.2 0.9 -0.9 0.9 -1.5 0 -0.7 1.8 -4.3 4 -8.1 2.2 -3.7 4 -7 4 -7.2 0 -0.6 -16.9 9.8 -17.8 11 -0.5 0.6 -2.6 5.8 -4.6 11.6 -12.4 34.9 -14.4 41 -13.6 41 0.6 0 1 -0.5 1 -1.2z"></path>
  <path d="M369 383.1 c0 -2.4 0.4 -3.1 2 -3.1 1.1 0 2 -0.7 2 -1.5 0 -0.8 0.9 -1.5 2 -1.5 1.1 0 2 -0.7 2 -1.5 0 -0.8 0.9 -1.5 2 -1.5 1.1 0 2 -0.7 2 -1.5 0 -0.8 0.9 -1.5 2 -1.5 1.2 0 2 -0.7 2 -1.6 0 -1 0.7 -1.4 2.3 -1.2 3.7 0.5 2.6 2.4 -4.8 7.9 -3.8 2.9 -8.5 6.4 -10.2 7.7 l-3.3 2.4 0 -3.1z"></path>
  <path d="M231.5 359.4 c-9.3 -4.2 -17.2 -7.8 -17.4 -8 -0.2 -0.2 7.2 -18.4 16.5 -40.5 13 -30.9 17 -39.5 17.5 -37.7 0.4 1.2 0.7 6.7 0.8 12.1 0.1 9.1 0 9.7 -1.9 9.7 -1.6 0 -2 -0.7 -2 -3.1 0 -2.7 -0.2 -2.9 -1.5 -1.5 -0.8 0.8 -1.5 2.4 -1.5 3.5 0 1.2 -0.4 2.1 -1 2.1 -0.5 0 -1 0.9 -1 1.9 0 3 -1.1 5.1 -2.6 5.1 -0.9 0 -1.4 1.2 -1.4 3.5 0 1.9 -0.4 3.5 -1 3.5 -0.5 0 -1 1.1 -1 2.5 0 1.4 -0.4 2.5 -1 2.5 -0.5 0 -1 1.1 -1 2.4 0 1.4 -0.7 3.1 -1.5 4 -0.8 0.8 -1.5 2.4 -1.5 3.5 0 1.1 -0.7 2.6 -1.5 3.5 -0.8 0.8 -1.5 2.4 -1.5 3.5 0 1.2 -0.6 2.1 -1.5 2.1 -1 0 -1.5 1.1 -1.5 3.5 0 2.4 -0.5 3.5 -1.5 3.5 -1 0 -1.5 1.1 -1.5 3.5 0 2.1 -0.5 3.5 -1.2 3.6 -0.7 0 -0.3 0.5 1 1.1 1.2 0.6 2.2 1.7 2.2 2.5 0 0.8 1.1 1.3 2.9 1.3 3.9 0 6.1 0.9 6.1 2.6 0 0.9 1.1 1.4 2.9 1.4 3.9 0 6.1 0.9 6.1 2.6 0 0.9 1.1 1.4 3.3 1.4 4.2 0 6 1.2 5.5 3.8 -0.3 2 -1.4 1.6 -17.3 -5.4z"></path>
  <path d="M254 362 c0 -4.3 0.3 -5 2 -5 1.1 0 2 0.7 2 1.5 0 1.6 2.6 1 4.8 -1.2 0.7 -0.7 2 -1.3 2.8 -1.3 0.8 0 1.4 -0.4 1.4 -1 0 -0.5 1.1 -1.2 2.5 -1.6 1.4 -0.3 2.5 -1 2.5 -1.4 0 -0.5 1 -1.2 2.2 -1.6 1.2 -0.3 2.8 -1.3 3.6 -2 0.7 -0.8 2 -1.4 2.8 -1.4 0.8 0 1.4 -0.3 1.4 -0.8 0 -0.4 2 -1.8 4.5 -3.2 4.2 -2.3 5.7 -4 3.6 -4 -0.5 0 -1.5 -1.5 -2.2 -3.2 -0.7 -1.8 -1.9 -3.9 -2.6 -4.6 -0.7 -0.7 -1.3 -2 -1.3 -2.8 0 -0.8 -0.3 -1.4 -0.7 -1.4 -0.5 0 -2.4 -3 -4.3 -6.7 -1.9 -3.7 -4.1 -7.3 -4.7 -8.1 -0.7 -0.7 -1.6 -2.4 -1.9 -3.8 -0.3 -1.3 -1 -2.4 -1.4 -2.4 -0.5 0 -1.4 -1.6 -2.1 -3.5 -0.7 -1.9 -1.6 -3.5 -2 -3.5 -0.4 0 -1.3 -1.5 -2 -3.2 -0.7 -1.8 -1.9 -3.9 -2.6 -4.6 -0.7 -0.7 -1.3 -2 -1.3 -2.8 0 -0.8 -0.3 -1.4 -0.8 -1.4 -0.4 0 -2.2 -2.7 -4 -6 -2.5 -4.5 -3.2 -6.9 -3 -9.9 l0.3 -4 6.1 10.7 c3.4 5.9 13 22.5 21.3 36.9 8.3 14.5 15.1 26.6 15.1 27.1 0 0.8 -40.2 25.2 -41.5 25.2 -0.3 0 -0.5 -2.2 -0.5 -5z"></path>
  <path d="M388.7 362.2 c-1 -1 -1.5 -2.1 -1.2 -2.3 0.2 -0.3 5.4 -23.6 11.5 -51.9 6 -28.3 11.6 -54 12.3 -57.1 l1.4 -5.6 -2.3 1.1 c-1.3 0.6 -2.4 1.8 -2.4 2.7 0 1.8 -3.1 4.9 -4.8 4.9 -0.7 0 -1.2 0.8 -1.2 1.8 0 2.1 -2.9 5.2 -4.8 5.2 -0.7 0 -1.2 0.8 -1.2 1.8 0 2.1 -2.9 5.2 -4.8 5.2 -0.7 0 -1.2 0.8 -1.2 1.8 0 2 -3.9 6.2 -5.7 6.2 -0.7 0 -1.3 1 -1.5 2.3 -0.2 1.2 -1.3 2.6 -2.5 3.2 -1.3 0.5 -2.3 1.7 -2.3 2.6 0 1.8 -3 4.9 -4.8 4.9 -0.7 0 -1.2 0.9 -1.2 1.9 0 1.1 -1.3 3.1 -3 4.4 -1.6 1.4 -3 3 -3 3.5 0 0.6 -1.3 2.2 -3 3.5 -1.6 1.4 -3 3 -3 3.5 0 1.2 -4.4 5.2 -5.8 5.2 -0.7 0 -1.2 0.8 -1.2 1.7 0 0.9 -0.7 2.4 -1.5 3.2 -1.3 1.5 0.2 3.3 14.1 17.3 13.7 13.7 15.5 15.9 15.2 18.4 -0.3 2.7 -1.3 2 -18.5 -15 -10.1 -9.9 -18.3 -18.3 -18.3 -18.7 0 -0.4 7.5 -9.5 16.8 -20.1 9.2 -10.7 26.1 -30.3 37.5 -43.7 11.5 -13.3 21 -24.1 21.2 -23.9 0.4 0.4 -28.1 132.8 -28.7 133.4 -0.3 0.2 -1.2 -0.4 -2.1 -1.4z"></path>
  <path d="M395.4 362.5 c0.3 -1.1 6.8 -31.5 14.6 -67.5 7.7 -36 14.4 -66.4 14.8 -67.4 0.8 -1.8 1 -1.7 3.1 1.2 1.6 2.3 1.8 3.2 0.9 3.2 -1 0 -3.9 11.5 -10.3 41.3 -4.8 22.6 -9.9 46.2 -11.2 52.2 -5.6 25.9 -5.3 23.5 -3.2 23.5 1.2 0 1.9 -0.9 2.1 -2.7 0.2 -2 0.9 -2.9 2.5 -3.1 1.5 -0.2 2.3 -1.1 2.5 -3 0.2 -1.9 1 -2.8 2.5 -3 1.5 -0.2 2.3 -1.1 2.5 -3 0.2 -2.1 0.9 -2.8 3 -3 2.2 -0.3 2.7 -0.9 3 -3.5 0.2 -2.4 0.8 -3.3 2.5 -3.5 1.5 -0.2 2.3 -1.1 2.5 -3 0.2 -1.9 1 -2.8 2.6 -3 1.6 -0.3 2.2 -1 2.2 -2.8 0 -1.9 0.5 -2.4 2.4 -2.4 2.1 0 2.5 -0.6 2.8 -3.2 0.2 -2.5 0.8 -3.4 2.5 -3.6 1.5 -0.2 2.3 -1.1 2.5 -3 0.2 -1.9 1 -2.8 2.5 -3 1.5 -0.2 2.3 -1.1 2.5 -3 0.2 -1.9 1 -2.8 2.5 -3 1.5 -0.2 2.3 -1.1 2.5 -3 0.2 -1.9 1 -2.8 2.5 -3 1.5 -0.2 2.3 -1.1 2.5 -3 0.2 -1.9 1 -2.8 2.6 -3 1.6 -0.3 2.2 -1 2.2 -2.8 0 -2.7 1.6 -3.7 5 -3.2 1.8 0.2 -3.4 7 -32.5 41.8 -19.1 22.8 -35.8 42.6 -37.2 44 -2.2 2.2 -2.4 2.3 -1.9 0.5z"></path>
  <path d="M112 357 c0 -0.9 14.9 -8.9 20.6 -11 2.1 -0.8 2.4 -0.7 2.4 1.3 0 1.8 -1.6 3 -8.5 6.5 -8.1 4 -14.5 5.4 -14.5 3.2z"></path>
  <path d="M102 355.3 c0 -0.7 -13.2 -78.7 -18.6 -110.1 -1.9 -11.2 -3.4 -20.8 -3.2 -21.4 0.3 -0.8 75.6 102.6 76.6 105.2 0.2 0.4 -1 1.3 -2.5 1.9 -1.5 0.6 -3.8 1.5 -5 2.1 -2 0.8 -2.3 0.6 -2.3 -1.5 0 -1.8 0.5 -2.5 1.9 -2.5 1.4 0 1.8 -0.5 1.4 -1.9 -0.3 -1.1 -1.1 -2.2 -1.9 -2.5 -0.8 -0.3 -1.4 -1.2 -1.4 -2.1 0 -0.8 -0.4 -1.5 -1 -1.5 -0.5 0 -1 -0.6 -1 -1.4 0 -0.8 -0.7 -1.6 -1.5 -2 -0.8 -0.3 -1.5 -1.2 -1.5 -2.1 0 -0.8 -0.4 -1.5 -1 -1.5 -0.5 0 -1 -0.9 -1 -2 0 -1.1 -0.7 -2 -1.5 -2 -0.8 0 -1.5 -0.7 -1.5 -1.5 0 -0.8 -0.4 -1.5 -1 -1.5 -0.5 0 -1 -0.9 -1 -2 0 -1.1 -0.7 -2 -1.5 -2 -0.8 0 -1.5 -0.6 -1.5 -1.4 0 -0.8 -0.7 -1.6 -1.5 -2 -0.8 -0.3 -1.5 -1.2 -1.5 -2.1 0 -0.8 -0.4 -1.5 -1 -1.5 -0.5 0 -1 -0.6 -1 -1.4 0 -0.8 -0.7 -1.6 -1.5 -2 -0.8 -0.3 -1.5 -1.2 -1.5 -2.1 0 -0.8 -0.4 -1.5 -1 -1.5 -0.5 0 -1 -0.9 -1 -2 0 -1.1 -0.7 -2 -1.5 -2 -0.8 0 -1.5 -0.7 -1.5 -1.5 0 -0.8 -0.4 -1.5 -1 -1.5 -0.5 0 -1 -0.9 -1 -2 0 -1.1 -0.7 -2 -1.5 -2 -0.8 0 -1.5 -0.6 -1.5 -1.4 0 -0.8 -0.7 -1.6 -1.5 -2 -0.8 -0.3 -1.5 -1.2 -1.5 -2.1 0 -0.8 -0.4 -1.5 -1 -1.5 -0.5 0 -1 -0.6 -1 -1.4 0 -0.8 -0.7 -1.6 -1.5 -2 -0.8 -0.3 -1.5 -1.2 -1.5 -2.1 0 -0.8 -0.4 -1.5 -1 -1.5 -0.5 0 -1 -0.9 -1 -2 0 -1.1 -0.7 -2 -1.5 -2 -0.8 0 -1.5 -0.6 -1.5 -1.4 0 -0.8 -0.7 -1.6 -1.5 -2 -0.8 -0.3 -1.5 -1.2 -1.5 -2.1 0 -0.8 -0.4 -1.5 -1 -1.5 -0.5 0 -1 -0.7 -1 -1.5 0 -0.8 -0.4 -1.5 -1 -1.5 -0.5 0 -1 -0.9 -1 -2 0 -1.1 -0.7 -2 -1.5 -2 -0.8 0 -1.5 -0.6 -1.5 -1.4 0 -0.8 -0.7 -1.6 -1.5 -2 -0.8 -0.3 -1.5 -1.2 -1.5 -2.1 0 -0.8 -0.5 -1.5 -1.1 -1.5 -0.6 0 -0.8 0.8 -0.5 1.8 0.3 0.9 2.8 15.4 5.6 32.2 2.8 16.8 6.9 40.9 9 53.5 2.2 12.7 4 23.3 4 23.8 0 0.4 0.7 0.7 1.5 0.7 2.5 0 1.7 1.8 -1.5 3.5 -1.6 0.9 -3 1.2 -3 0.8z"></path>
  <path d="M363.2 349.6 c-4.5 -4.3 -5.3 -5.7 -5 -8.2 0.3 -2.9 0.4 -2.8 8.8 5.3 l8.5 8.2 -3.5 0 c-2.9 0 -4.5 -0.9 -8.8 -5.3z"></path>
  <path d="M68.5 307.8 c-15.3 -23.8 -28.4 -44.2 -29.2 -45.4 -1.2 -1.9 -0.5 -2.9 9.4 -13.9 l10.8 -11.9 0.3 3.3 c0.4 4.3 -3.8 9.1 -8 9.1 -2.5 0 -2.8 0.3 -2.8 3.4 0 2.6 -0.8 4.1 -3.3 6.2 -2 1.7 -2.7 2.9 -1.9 3.1 0.6 0.3 1.2 1.1 1.2 1.9 0 0.8 0.5 1.4 1 1.4 0.6 0 1 0.5 1 1 0 0.6 0.8 2 1.9 3.1 1 1.1 2.7 3.7 3.7 5.7 1.1 2 2.2 3.9 2.7 4 0.4 0.2 0.7 0.8 0.7 1.3 0 0.6 0.9 2 2 3.2 1.2 1.2 2.3 3.2 2.6 4.4 0.4 1.3 1 2.3 1.5 2.3 0.5 0 0.9 0.7 0.9 1.5 0 0.8 0.5 1.5 1 1.5 0.6 0 1 0.7 1 1.5 0 0.8 0.4 1.5 1 1.5 0.5 0 1.2 1.1 1.6 2.5 0.3 1.4 1 2.5 1.5 2.5 0.5 0 0.9 0.7 0.9 1.5 0 0.8 0.5 1.5 1 1.5 0.6 0 1 0.7 1 1.5 0 0.8 0.5 1.5 1 1.5 0.6 0 1 0.5 1 1 0 0.6 0.9 2.1 2 3.3 1.2 1.2 2.3 3.2 2.6 4.4 0.4 1.3 1 2.3 1.5 2.3 0.5 0 0.9 0.5 0.9 1 0 0.6 0.9 2.1 2 3.3 1.2 1.2 2.3 3.2 2.6 4.4 0.4 1.3 1 2.3 1.5 2.3 0.5 0 0.9 0.7 0.9 1.5 0 0.8 0.5 1.5 1.1 1.5 0.6 0 0.8 -1.1 0.5 -2.7 -0.6 -2.6 -5 -28.9 -9.7 -56.8 -1.1 -6.6 -2.4 -14 -2.9 -16.5 -0.5 -2.5 -1.9 -10.7 -3.1 -18.3 -2 -12.5 -2.1 -13.9 -0.7 -15.3 2 -2 1.1 -5.8 8.8 39.6 3.3 19.5 8 47.4 10.5 61.9 2.5 14.5 4.3 26.6 4.1 26.8 -0.2 0.2 -12.8 -19.1 -28.1 -42.9z"></path>
  <path d="M246 341.5 c0 -7.4 0.3 -9.5 1.4 -9.5 1.9 0 2.6 3.2 2.6 11.8 0 6.5 -0.2 7.2 -2 7.2 -1.9 0 -2 -0.7 -2 -9.5z"></path>
  <path d="M114 347.7 c0 -1.9 1.8 -3.2 10.5 -7.5 5.8 -2.8 11.2 -5.2 12 -5.2 0.8 0 1.5 -0.4 1.5 -1 0 -0.5 1.6 -1 3.5 -1 1.9 0 3.5 0.4 3.5 1 0 0.9 -22.6 12.8 -28.6 15.1 -2.1 0.7 -2.4 0.6 -2.4 -1.4z"></path>
  <path d="M207 347 c0 -2.6 14.8 -38.4 16.1 -38.8 0.5 -0.2 0.9 -1.2 0.9 -2.2 0 -2.3 5.9 -16.4 7.1 -16.8 0.5 -0.2 0.9 -1.2 0.9 -2.2 0 -0.9 0.7 -3.4 1.5 -5.4 1.4 -3.2 1.4 -3.6 0 -3.6 -0.8 0 -1.5 0.9 -1.5 2 0 1.5 -0.7 2 -2.5 2 -1.8 0 -2.5 0.5 -2.5 2 0 1.3 -0.7 2 -1.9 2 -1 0 -2.1 0.9 -2.4 2 -0.3 1.1 -1.4 2 -2.5 2 -1.1 0 -2.2 0.9 -2.5 2 -0.3 1.1 -1.4 2 -2.5 2 -1.1 0 -2.2 0.9 -2.5 2 -0.3 1.1 -1.4 2 -2.5 2 -1.1 0 -2.2 0.9 -2.5 2 -0.3 1.2 -1.4 2 -2.6 2 -1.2 0 -2.1 0.6 -2.1 1.5 0 0.9 -0.9 1.5 -2.4 1.5 -1.8 0 -2.5 0.6 -2.8 2.3 -0.2 1.4 -1.1 2.3 -2.5 2.5 -1.3 0.2 -2.3 1 -2.3 1.8 0 0.8 -1 1.4 -2.4 1.4 -1.8 0 -2.5 0.6 -2.8 2.3 -0.2 1.4 -1.1 2.3 -2.5 2.5 -1.3 0.2 -2.3 1 -2.3 1.8 0 0.8 -1 1.4 -2.4 1.4 -1.8 0 -2.5 0.6 -2.8 2.3 -0.2 1.4 -1.1 2.3 -2.5 2.5 -2.8 0.4 -3 2.8 -0.3 3.7 1.1 0.3 2 1.3 2 2.1 0 0.9 1.1 1.4 2.9 1.4 3.9 0 6.1 0.9 6.1 2.6 0 0.9 1.1 1.4 2.9 1.4 3.9 0 6.1 0.9 6.1 2.6 0 0.9 1.1 1.4 3.3 1.4 4.2 0 6 1.2 5.5 3.8 -0.3 2 -1.4 1.6 -17.3 -5.4 -9.3 -4.2 -17.8 -8.4 -18.7 -9.4 -1.7 -1.8 -0.3 -3.1 37.3 -33 21.5 -17.2 39.2 -31 39.3 -30.8 0.1 0.1 -7.5 18.8 -17 41.3 -11.2 26.5 -17.8 41.1 -18.8 41.3 -1.1 0.2 -1.6 -0.4 -1.6 -1.8z"></path>
  <path d="M296.2 333.3 c-8.4 -14.3 -37 -64.1 -38.2 -66.4 l-1.3 -2.3 2.9 1.9 c22.6 14.7 76.4 51 76.4 51.5 0 0.5 -28 17.8 -35.2 21.7 -0.4 0.2 -2.5 -2.7 -4.6 -6.4z m18.9 -7.4 c6.6 -4 12.1 -7.5 12.3 -7.8 0.2 -0.3 -12.5 -9.2 -28.3 -19.7 l-28.8 -19.2 15.5 26.9 c8.5 14.8 15.9 26.9 16.4 26.9 0.5 0 6.3 -3.2 12.9 -7.1z"></path>
  <path d="M338.7 326.3 c1.7 -4.7 4.3 -5.1 4.3 -0.7 0 1.9 -0.5 2.4 -2.5 2.4 -1.9 0 -2.3 -0.4 -1.8 -1.7z"></path>
  <path d="M150.2 305.3 c-9.5 -19.3 -10.1 -20.8 -8.1 -21.1 2.6 -0.4 3.9 1.3 3.9 5.1 0 1.5 0.6 2.7 1.3 2.7 0.7 0 4.5 6.6 8.6 14.8 6.3 12.6 7.5 14.4 8.2 12.5 0.6 -1.6 1.7 -2.3 3.4 -2.3 1.8 0 2.5 -0.5 2.5 -2 0 -1.3 0.7 -2 1.9 -2 1 0 2.1 -0.9 2.4 -2 0.3 -1.4 1.4 -2 3.1 -2 1.9 0 2.6 -0.5 2.6 -2 0 -1.3 0.7 -2 1.9 -2 1 0 2.1 -0.9 2.4 -2 0.3 -1.1 1.4 -2 2.5 -2 1.1 0 2.2 -0.9 2.5 -2 0.3 -1.1 1.4 -2 2.5 -2 1.1 0 2.2 -0.9 2.5 -2 0.3 -1.1 1.4 -2 2.5 -2 1.1 0 2.2 -0.9 2.5 -2 0.3 -1.1 1.4 -2 2.5 -2 1.1 0 2.2 -0.9 2.5 -2 0.3 -1.1 1.4 -2 2.5 -2 1.1 0 2.2 -0.9 2.5 -2 0.3 -1.1 1.4 -2 2.5 -2 1.1 0 2.2 -0.9 2.5 -2 0.3 -1.1 1.4 -2 2.5 -2 1.1 0 2.2 -0.9 2.5 -2 0.3 -1.1 1.4 -2 2.5 -2 1.1 0 2.2 -0.9 2.5 -2 0.3 -1.2 1.4 -2 2.6 -2 1.2 0 2.1 -0.6 2.1 -1.5 0 -0.9 0.9 -1.5 2.5 -1.5 1.5 0 2.5 -0.6 2.5 -1.4 0 -0.8 0.2 -2.1 0.5 -2.8 0.4 -1 -2.8 -2.2 -13.2 -4.7 -7.6 -1.8 -25.5 -6.1 -39.8 -9.6 -14.3 -3.5 -27.7 -6.6 -29.7 -7 -2.9 -0.6 -3.8 -1.2 -3.8 -2.7 0 -2.5 -0.3 -2.5 28 4.3 11.3 2.8 30.6 7.5 43 10.5 12.4 3 23.3 5.8 24.3 6.2 1.5 0.6 -6.4 7.3 -39.2 33.5 -22.5 18 -41.6 32.9 -42.3 33.2 -1 0.4 -4.4 -5.7 -11.6 -20.2z"></path>
  <path d="M253.6 323.8 c-0.3 -1.3 -0.6 -9.6 -0.6 -18.5 0 -15.6 0.1 -16.3 2 -16.3 1.9 0 2 0.7 2 18.5 0 15.1 -0.3 18.5 -1.4 18.5 -0.7 0 -1.6 -1 -2 -2.2z"></path>
  <path d="M297.7 287.2 c-22.9 -15.2 -41.7 -27.9 -41.7 -28.2 0 -0.3 6.2 -2.2 13.8 -4.3 7.5 -2 37.3 -10.2 66.2 -18.1 28.9 -7.9 52.7 -14.2 52.9 -14 0.4 0.4 -47.8 91.2 -48.8 91.9 -0.4 0.2 -19.5 -12.1 -42.4 -27.3z m47.2 9.8 c0.3 -0.3 2 -3.4 3.6 -6.9 1.7 -3.5 3.5 -6.9 4 -7.5 0.6 -0.6 2.4 -4 4 -7.5 1.7 -3.5 3.5 -6.9 4 -7.5 0.6 -0.6 2.4 -4 4 -7.5 1.7 -3.5 3.5 -6.9 4 -7.6 1.7 -1.9 12.4 -23.5 11.7 -23.5 -0.6 0 -9.7 2.4 -33.7 9 -17.7 4.8 -77.1 21.1 -78.9 21.6 -1.5 0.5 -1 1.1 2.8 3.6 2.5 1.7 4.6 3.4 4.6 3.9 0 0.5 0.6 0.9 1.3 0.9 1.3 0 20.5 12.4 22.2 14.4 0.6 0.6 2.7 2 4.8 3 2.1 1.1 4.8 2.9 6.1 4 1.3 1.2 4 3 6 4 2 1.1 4.7 2.9 6 4 1.3 1.2 4 3 6 4 2 1.1 4.8 3 6.1 4.2 4 3.7 4.8 3.5 7.9 -2.5 1.6 -3.1 3.1 -5.8 3.5 -6.1z"></path>
  <path d="M120.5 271.3 c-13.8 -19 -27.8 -38.5 -31.2 -43.2 -3.4 -4.7 -6 -8.7 -5.8 -8.9 0.2 -0.2 3.4 0.6 7.2 1.7 3.7 1.1 8.7 2.5 11.1 3.1 4.3 1.1 4.3 1.2 10.8 14.3 9 18.1 8.9 17.7 5.9 17.7 -2 0 -2.7 -0.6 -3.1 -3 -0.4 -1.6 -0.9 -3 -1.3 -3 -0.4 0 -3.1 -4.9 -6.1 -10.9 -4.3 -8.9 -5.9 -11.1 -7.9 -11.6 -1.4 -0.3 -3.4 -0.8 -4.3 -1.1 -1.3 -0.4 -1.8 0 -1.8 1.5 0 1.2 0.7 2.1 1.5 2.1 0.8 0 1.5 0.7 1.5 1.5 0 0.8 0.5 1.5 1 1.5 0.6 0 1 0.6 1 1.4 0 0.8 0.7 1.6 1.5 2 0.8 0.3 1.5 1.2 1.5 2 0 0.7 0.7 1.6 1.5 2 0.8 0.3 1.5 1.2 1.5 2.1 0 0.8 0.5 1.5 1 1.5 0.6 0 1 0.6 1 1.4 0 0.8 0.7 1.6 1.5 2 0.8 0.3 1.5 1.2 1.5 2.1 0 0.8 0.5 1.5 1 1.5 0.6 0 1 0.6 1 1.4 0 0.8 0.7 1.6 1.5 2 0.8 0.3 1.5 1.2 1.5 2.1 0 0.8 0.5 1.5 1 1.5 0.6 0 1 0.9 1 2 0 1.1 0.7 2 1.5 2 0.8 0 1.5 0.6 1.5 1.4 0 0.8 0.7 1.6 1.5 2 0.8 0.3 1.5 1.2 1.5 2.1 0 0.8 0.5 1.5 1 1.5 0.6 0 1 0.6 1 1.4 0 0.8 0.7 1.6 1.5 2 0.8 0.3 1.5 1.2 1.5 2.1 0 0.8 0.5 1.5 1 1.5 0.6 0 1 0.6 1 1.4 0 0.8 0.7 1.6 1.5 2 0.8 0.3 1.5 1.2 1.5 2 0 0.8 0.4 1.6 0.9 1.8 0.8 0.3 12.5 22.8 11.8 22.8 -0.2 0 -11.5 -15.6 -25.2 -34.7z"></path>
  <path d="M356.5 293.3 c3.1 -6.1 4.2 -7.3 6.2 -7.3 2.3 0 2.5 -0.3 2 -3.7 -0.3 -2.7 0.2 -4.9 1.6 -7.5 2.7 -4.9 4 -4.8 3.5 0.2 -0.2 2.2 0 4 0.4 4 0.5 0 0.8 -1.6 0.8 -3.5 0 -3 0.3 -3.5 2.4 -3.5 2.1 0 2.5 -0.6 2.8 -3.2 0.2 -2.7 0.8 -3.4 3 -3.6 2.2 -0.3 2.7 -0.9 3 -3.5 0.3 -2.8 0.7 -3.2 3.6 -3.5 2.9 -0.3 3.2 -0.6 3.2 -3.8 0 -3.1 0.2 -3.4 3 -3.4 2.8 0 3 -0.3 3 -3.5 0 -3.2 0.2 -3.5 2.9 -3.5 2.7 0 3 -0.3 3.3 -3.7 0.3 -3.3 0.7 -3.8 3 -4.1 2.2 -0.3 2.7 -0.9 3 -3.5 0.2 -2.7 0.8 -3.3 3.1 -3.5 4.1 -0.5 3.5 -3.2 -0.8 -3.2 -2.9 0 -3.5 -0.4 -3.5 -2 0 -2 0.4 -2.1 6.3 -1.4 3.4 0.4 6.3 0.8 6.5 0.9 0.3 0.2 -61.4 72.3 -64.5 75.5 -0.9 0.8 0.1 -1.8 2.2 -5.7z"></path>
  <path d="M458.7 268.2 c-1.8 -1.9 -2.7 -3.9 -2.7 -6.2 l0 -3.4 3.6 3.5 c2 1.8 4.5 4.6 5.6 6.2 l1.9 2.7 -2.8 0 c-1.9 0 -3.9 -1 -5.6 -2.8z"></path>
  <path d="M372 264.4 c0 -1.3 4.4 -8.4 5.2 -8.4 0.9 0 1.1 5.1 0.2 7.4 -0.6 1.5 -5.4 2.4 -5.4 1z"></path>
  <path d="M446.8 243.1 l-20.7 -22 10.2 -21.3 c5.7 -11.7 13 -26.9 16.3 -33.8 l5.9 -12.4 0.7 4.9 c1.3 8.2 8.9 101.5 8.6 104.1 -0.3 2.1 -3.2 -0.7 -21 -19.5z m16.7 6.7 c-0.6 -4.3 -1.9 -20.1 -5.2 -60 -0.9 -11.5 -1.8 -20.6 -2 -20.4 -0.7 0.7 -24.3 49.8 -24.3 50.5 0 0.4 2 2.7 4.5 5.1 3.5 3.5 4.5 5.1 4.5 7.7 0 2.9 0.3 3.3 2.7 3.3 2 0 4.3 1.6 8.5 5.7 4.7 4.7 5.8 6.3 5.8 9 0 3 0.3 3.3 3.1 3.3 3 0 3 0 2.4 -4.2z"></path>
  <path d="M471.8 259.3 c-0.1 -2.1 -0.3 -5.8 -0.4 -8.3 -0.1 -2.5 -0.6 -6.7 -1 -9.4 -0.7 -4.8 -0.6 -4.9 1.8 -4.4 2.4 0.4 2.4 0.4 8.3 -27.4 5.1 -23.7 6.2 -27.8 7.7 -27.8 1 0 1.8 0.4 1.8 0.9 0 1.1 -13.2 63.2 -15.6 73.4 -0.9 3.7 -1.8 6.7 -2 6.7 -0.2 0 -0.5 -1.7 -0.6 -3.7z"></path>
  <path d="M213 247 c-12.9 -3.2 -31.1 -7.6 -40.5 -9.9 -43.6 -10.5 -63 -15.3 -63.2 -15.5 -0.6 -0.5 -7.3 -54.9 -6.9 -55.3 0.4 -0.5 132.5 83.5 135.1 85.8 1.3 1.3 1.6 1.3 -24.5 -5.1z m1 -5 c0 -0.5 -0.7 -1 -1.5 -1 -0.8 0 -1.5 -0.4 -1.5 -1 0 -0.5 -0.7 -1 -1.5 -1 -0.8 0 -1.5 -0.4 -1.5 -1 0 -0.5 -0.7 -1 -1.5 -1 -0.8 0 -1.5 -0.7 -1.5 -1.5 0 -0.9 -0.9 -1.5 -2.5 -1.5 -1.4 0 -2.5 -0.4 -2.5 -1 0 -0.5 -0.7 -1 -1.5 -1 -0.8 0 -1.5 -0.4 -1.5 -1 0 -0.5 -0.7 -1 -1.5 -1 -0.8 0 -1.5 -0.4 -1.5 -0.9 0 -0.5 -1.1 -1.2 -2.5 -1.5 -1.4 -0.4 -2.5 -1.1 -2.5 -1.6 0 -0.6 -0.7 -1 -1.5 -1 -0.8 0 -1.5 -0.4 -1.5 -1 0 -0.5 -0.7 -1 -1.5 -1 -0.8 0 -1.5 -0.4 -1.5 -1 0 -0.5 -0.7 -1 -1.5 -1 -0.8 0 -1.5 -0.4 -1.5 -0.9 0 -0.5 -1.1 -1.2 -2.5 -1.5 -1.4 -0.4 -2.5 -1.1 -2.5 -1.6 0 -0.6 -0.7 -1 -1.5 -1 -0.8 0 -1.5 -0.4 -1.5 -1 0 -0.5 -0.7 -1 -1.5 -1 -0.8 0 -1.5 -0.4 -1.5 -0.9 0 -0.5 -1.1 -1.2 -2.5 -1.5 -1.4 -0.4 -2.5 -1.1 -2.5 -1.6 0 -0.6 -0.7 -1 -1.5 -1 -0.8 0 -1.5 -0.4 -1.5 -1 0 -0.5 -0.7 -1 -1.5 -1 -0.8 0 -1.5 -0.4 -1.5 -1 0 -0.5 -0.7 -1 -1.5 -1 -0.8 0 -1.5 -0.4 -1.5 -0.9 0 -0.5 -1.1 -1.2 -2.5 -1.5 -1.4 -0.4 -2.5 -1.1 -2.5 -1.6 0 -0.6 -0.7 -1 -1.5 -1 -0.8 0 -1.5 -0.4 -1.5 -1 0 -0.5 -0.7 -1 -1.5 -1 -0.8 0 -1.5 -0.4 -1.5 -0.9 0 -0.5 -1.1 -1.2 -2.5 -1.5 -1.4 -0.4 -2.5 -1.1 -2.5 -1.6 0 -0.6 -0.7 -1 -1.5 -1 -0.8 0 -1.5 -0.4 -1.5 -1 0 -0.5 -0.7 -1 -1.5 -1 -0.8 0 -1.5 -0.4 -1.5 -1 0 -0.5 -0.7 -1 -1.5 -1 -0.8 0 -1.5 -0.4 -1.5 -0.9 0 -0.5 -1.1 -1.2 -2.5 -1.5 -1.4 -0.4 -2.5 -1.1 -2.5 -1.6 0 -0.6 -0.7 -1 -1.5 -1 -0.8 0 -1.5 -0.4 -1.5 -1 0 -0.5 -0.7 -1 -1.5 -1 -0.8 0 -1.5 -0.4 -1.5 -0.9 0 -0.5 -1 -1.1 -2.3 -1.5 -1.2 -0.3 -3.2 -1.4 -4.4 -2.6 -1.2 -1.1 -2.6 -2 -3.2 -2 -0.5 0 -1.2 -0.6 -1.4 -1.2 -1.1 -2.7 -0.6 4.1 1.3 19.1 3.6 27.3 3.1 25.4 6.5 26.3 3 0.8 50.5 12.3 71.5 17.3 6.3 1.5 14.7 3.6 18.5 4.6 8.6 2.1 8.5 2.1 8.5 0.9z"></path>
  <path d="M20 206.5 c-8.3 -25 -15 -46 -14.8 -46.6 0.2 -0.7 7.9 -3.8 17.1 -7 16.2 -5.6 16.7 -5.8 16.7 -3.6 0 2 -1.7 2.8 -14.5 7.2 -8 2.8 -14.5 5.5 -14.5 6 0 0.6 5.1 16.3 11.4 35 11.2 33.3 11.5 33.9 11.5 27.8 0.1 -5.7 0.3 -6.3 2.2 -6.3 2 0 2.1 0.3 1.5 8.3 -0.4 4.5 -0.6 11.9 -0.6 16.5 0.1 4.5 -0.1 8.2 -0.3 8.2 -0.3 0 -7.4 -20.5 -15.7 -45.5z"></path>
  <path d="M117.9 239.9 c-3.3 -6.7 -5.8 -12.3 -5.5 -12.6 0.2 -0.3 8.1 1.4 17.5 3.7 11.9 2.9 17.1 4.6 17.1 5.6 0 2.1 -4.1 1.7 -16.6 -1.5 l-11 -2.8 1 3.4 c0.6 1.8 1.4 3.3 1.8 3.3 0.5 0 0.8 1.4 0.8 3 0 2 0.5 3 1.5 3 1 0 1.5 1.1 1.5 3.5 0 1.9 -0.4 3.5 -1 3.5 -0.5 0 -3.7 -5.4 -7.1 -12.1z"></path>
  <path d="M440.2 248.7 c-2.3 -2.4 -3.2 -4.2 -3.2 -6.7 l0 -3.4 4.1 3.9 c2.2 2.2 5 5.2 6.1 6.8 l1.9 2.7 -2.8 0 c-2 0 -3.9 -1.1 -6.1 -3.3z"></path>
  <path d="M40 248 c0 -1.9 0.3 -4.5 0.6 -5.7 0.7 -2.6 3.4 -3.2 3.4 -0.8 0 0.8 0.7 1.5 1.5 1.5 1 0 1.5 -1 1.5 -3.2 0 -4.2 4.3 -8.8 8.2 -8.8 2.5 0 2.8 -0.3 2.8 -3.3 0 -4.1 4.4 -8.7 8.3 -8.7 2 0 2.7 -0.5 2.7 -2 0 -1.1 -3.4 -8.8 -7.5 -17 -4.1 -8.2 -7.5 -15.7 -7.5 -16.5 0 -0.8 -0.4 -1.5 -0.9 -1.5 -0.5 0 -1.3 -1.5 -1.6 -3.2 -0.4 -1.8 -1.1 -3.5 -1.5 -3.8 -0.4 -0.3 -1.7 -2.4 -2.9 -4.7 -1.2 -2.4 -2.6 -4.3 -3.1 -4.3 -0.6 0 -1 -2.5 -1 -5.5 0 -3 0.3 -5.5 0.8 -5.5 0.8 0 28 55.3 28.8 58.5 0.3 1.5 -3.4 6.2 -15.2 19 -8.5 9.4 -16 17.4 -16.5 18 -0.5 0.5 -0.9 -0.4 -0.9 -2.5z"></path>
  <path d="M173.8 206.5 c-37.8 -24.2 -68.9 -44.3 -69.3 -44.6 -0.9 -0.9 69.2 -24.2 70.9 -23.6 1.4 0.6 67.8 110.6 67.4 111.7 -0.2 0.3 -31.2 -19.2 -69 -43.5z m57.2 30.5 c0 -0.5 -0.4 -1 -1 -1 -0.5 0 -1.2 -1.1 -1.6 -2.5 -0.3 -1.4 -1 -2.5 -1.4 -2.5 -0.4 0 -1.4 -1.5 -2.1 -3.2 -0.7 -1.8 -1.9 -3.9 -2.6 -4.6 -0.7 -0.7 -1.3 -2 -1.3 -2.8 0 -0.8 -0.4 -1.4 -0.9 -1.4 -0.5 0 -1.3 -1 -1.7 -2.2 -0.3 -1.2 -1.3 -2.8 -2 -3.6 -0.8 -0.7 -1.4 -2 -1.4 -2.8 0 -0.8 -0.4 -1.4 -1 -1.4 -0.5 0 -1.2 -1.1 -1.6 -2.5 -0.3 -1.4 -0.9 -2.5 -1.4 -2.5 -0.4 0 -1.5 -1.7 -2.6 -3.7 -1 -2.1 -2.5 -4.4 -3.1 -5.1 -0.7 -0.7 -1.3 -2.4 -1.3 -3.8 0 -1.5 -0.6 -2.4 -1.5 -2.4 -0.9 0 -1.5 -0.9 -1.5 -2.5 0 -1.6 -0.6 -2.5 -1.5 -2.5 -0.9 0 -1.5 -0.9 -1.5 -2.5 0 -1.5 -0.6 -2.5 -1.4 -2.5 -0.8 0 -1.8 -1 -2.2 -2.2 -0.3 -1.2 -1.3 -2.8 -2 -3.6 -0.8 -0.7 -1.4 -2 -1.4 -2.8 0 -0.8 -0.4 -1.4 -1 -1.4 -0.5 0 -1.2 -1.1 -1.6 -2.5 -0.3 -1.4 -1 -2.5 -1.4 -2.5 -0.5 0 -1.2 -1 -1.6 -2.2 -0.3 -1.2 -1.3 -2.8 -2 -3.6 -0.8 -0.7 -1.4 -2 -1.4 -2.8 0 -0.8 -0.4 -1.4 -1 -1.4 -0.5 0 -1 -0.5 -1 -1.1 0 -0.6 -0.7 -1.7 -1.5 -2.5 -0.8 -0.9 -1.5 -2.6 -1.5 -4 0 -1.4 -0.6 -2.4 -1.4 -2.4 -0.8 0 -1.6 -0.4 -1.8 -0.9 -0.1 -0.4 -13.9 3.7 -30.5 9.3 -30.4 10.2 -32 11 -25.5 13 1.2 0.4 2.2 1.2 2.2 1.7 0 0.5 0.7 0.9 1.5 0.9 0.8 0 1.5 0.5 1.5 1 0 0.6 0.7 1 1.5 1 0.8 0 1.5 0.5 1.5 1 0 0.6 0.7 1 1.5 1 0.8 0 1.5 0.4 1.5 0.9 0 0.5 1.1 1.2 2.5 1.5 1.4 0.4 2.5 1.1 2.5 1.6 0 0.6 0.7 1 1.5 1 0.8 0 1.5 0.4 1.5 0.9 0 0.5 1 1.1 2.3 1.5 1.2 0.3 3.2 1.4 4.4 2.6 1.2 1.1 2.7 2 3.3 2 0.5 0 1 0.5 1 1 0 0.6 0.7 1 1.5 1 0.8 0 1.5 0.5 1.5 1 0 0.6 0.7 1 1.5 1 0.8 0 1.5 0.4 1.5 0.9 0 0.5 1.1 1.2 2.5 1.5 1.4 0.4 2.5 1.1 2.5 1.6 0 0.6 0.7 1 1.5 1 0.8 0 1.5 0.5 1.5 1 0 0.6 0.7 1 1.5 1 0.8 0 1.5 0.5 1.5 1 0 0.6 0.7 1 1.5 1 0.8 0 1.5 0.7 1.5 1.5 0 0.9 0.9 1.5 2.5 1.5 1.4 0 2.5 0.5 2.5 1 0 0.6 0.7 1 1.5 1 0.8 0 1.5 0.5 1.5 1 0 0.6 0.7 1 1.5 1 0.8 0 1.5 0.4 1.5 0.9 0 0.5 1.1 1.2 2.5 1.5 1.4 0.4 2.5 1.1 2.5 1.6 0 0.6 0.7 1 1.5 1 0.8 0 1.5 0.5 1.5 1 0 0.6 0.7 1 1.5 1 0.8 0 1.5 0.5 1.5 1 0 0.6 0.7 1 1.5 1 0.8 0 1.5 0.7 1.5 1.5 0 0.9 0.9 1.5 2.5 1.5 1.4 0 2.5 0.5 2.5 1 0 0.6 0.7 1 1.5 1 0.8 0 1.5 0.5 1.5 1 0 0.6 0.7 1 1.5 1 0.8 0 1.5 0.4 1.5 0.9 0 0.5 1.1 1.2 2.5 1.5 1.4 0.4 2.5 1.1 2.5 1.6 0 0.6 0.7 1 1.5 1 0.8 0 1.5 0.5 1.5 1 0 0.6 0.7 1 1.5 1 0.8 0 1.5 0.5 1.5 1 0 0.6 0.7 1 1.5 1 0.8 0 1.5 0.4 1.5 0.9 0 0.5 1.1 1.2 2.5 1.5 1.4 0.4 2.5 1.1 2.5 1.6 0 0.6 0.7 1 1.5 1 0.8 0 1.5 0.5 1.5 1 0 0.6 0.7 1 1.5 1 0.8 0 1.5 0.5 1.5 1 0 0.6 0.5 1 1 1 0.6 0 1 -0.4 1 -1z"></path>
  <path d="M259.7 248.1 c10 -15.7 75 -110.1 75.8 -110.1 1.6 0 64.5 29.3 64.5 30 0 0.4 -15 9.4 -33.2 20.1 -18.3 10.6 -50.1 29.1 -70.7 41.1 -20.5 12 -37.6 21.8 -37.8 21.8 -0.3 0 0.3 -1.3 1.4 -2.9z m16.3 -12.1 c0 -0.4 1.5 -1.4 3.3 -2.1 1.7 -0.7 3.8 -1.9 4.5 -2.6 0.7 -0.7 2 -1.3 2.8 -1.3 0.8 0 1.4 -0.4 1.4 -0.9 0 -0.5 1.5 -1.5 3.3 -2.2 1.7 -0.7 3.8 -1.9 4.5 -2.6 0.7 -0.7 2 -1.3 2.8 -1.3 0.8 0 1.4 -0.4 1.4 -0.9 0 -0.5 1.5 -1.5 3.3 -2.2 1.7 -0.7 3.8 -1.9 4.5 -2.6 0.7 -0.7 2 -1.3 2.8 -1.3 0.8 0 1.4 -0.4 1.4 -0.9 0 -0.5 1.5 -1.5 3.3 -2.2 1.7 -0.7 3.8 -1.9 4.5 -2.6 0.7 -0.7 2 -1.3 2.8 -1.3 0.8 0 1.4 -0.4 1.4 -0.9 0 -0.5 1.6 -1.5 3.5 -2.2 1.9 -0.7 3.5 -1.6 3.5 -2 0 -0.4 1.5 -1.3 3.3 -2 1.7 -0.7 3.8 -1.9 4.5 -2.6 0.7 -0.7 1.9 -1.3 2.7 -1.3 0.7 0 1.5 -0.4 1.7 -0.8 0.4 -1.1 21.2 -13.2 22.6 -13.2 0.7 0 1.2 -0.4 1.2 -0.9 0 -0.5 1.5 -1.4 3.3 -2.2 1.7 -0.7 3.4 -1.6 3.7 -1.9 1.3 -1.6 13.6 -8.4 16.4 -9 3 -0.7 2.6 -0.9 -6.9 -5.4 -5.5 -2.6 -10.1 -5.1 -10.3 -5.7 -0.2 -0.5 -1.2 -0.9 -2.3 -0.9 -2.3 0 -10.9 -4.1 -10.9 -5.2 0 -0.4 -0.8 -0.8 -1.9 -0.8 -1 0 -6.3 -2 -11.6 -4.5 -5.4 -2.5 -10.1 -4.2 -10.4 -3.7 -0.3 0.5 -2.1 3.2 -4 6 -1.8 2.9 -3.7 5.2 -4.2 5.2 -0.5 0 -0.9 0.7 -0.9 1.5 0 0.8 -0.4 1.5 -1 1.5 -0.5 0 -1 0.7 -1 1.5 0 0.8 -0.4 1.5 -1 1.5 -0.5 0 -1 0.7 -1 1.5 0 0.8 -0.4 1.5 -1 1.5 -0.5 0 -1 0.7 -1 1.5 0 0.8 -0.4 1.5 -1 1.5 -0.5 0 -1 0.5 -1 1 0 1.5 -7.1 12 -8.1 12 -0.5 0 -0.9 0.7 -0.9 1.5 0 0.8 -0.4 1.5 -1 1.5 -0.5 0 -1 0.7 -1 1.5 0 0.8 -0.4 1.5 -1 1.5 -0.5 0 -1 0.7 -1 1.5 0 0.8 -0.3 1.5 -0.8 1.5 -0.4 0 -1.3 1.3 -2 2.9 -0.7 1.6 -2.4 4.1 -3.7 5.5 -1.4 1.5 -2.5 3.1 -2.5 3.7 0 0.5 -0.4 0.9 -1 0.9 -0.5 0 -1 0.7 -1 1.5 0 0.8 -0.4 1.5 -1 1.5 -0.5 0 -1 0.7 -1 1.5 0 0.8 -0.4 1.5 -1 1.5 -0.5 0 -1 0.7 -1 1.5 0 0.8 -0.4 1.5 -1 1.5 -0.5 0 -1 0.7 -1 1.5 0 0.8 -0.4 1.5 -1 1.5 -0.5 0 -1 0.6 -1 1.4 0 0.7 -1.1 2.5 -2.5 4 -1.4 1.5 -2.5 3.1 -2.5 3.7 0 0.5 -0.4 0.9 -1 0.9 -0.5 0 -1 0.7 -1 1.5 0 0.8 -0.4 1.5 -1 1.5 -0.5 0 -1 0.7 -1 1.5 0 0.8 -0.4 1.5 -1 1.5 -0.5 0 -1 0.7 -1 1.5 0 0.8 -0.4 1.5 -1 1.5 -0.5 0 -1 0.7 -1 1.5 0 0.8 -0.4 1.5 -1 1.5 -0.5 0 -1 0.4 -1 0.9 0 0.5 0.9 0.7 2 0.4 1.1 -0.3 2 -0.9 2 -1.3z"></path>
  <path d="M275 246 c4.7 -2.7 35.1 -20.4 67.5 -39.3 32.5 -18.9 59.1 -33.9 59.3 -33.3 0.3 1.7 -9.5 42.7 -10.4 43.5 -0.5 0.4 -21.1 6.3 -45.9 13.1 -24.7 6.7 -52.2 14.2 -61 16.6 -8.7 2.4 -16.4 4.4 -17 4.4 -0.5 0 2.8 -2.3 7.5 -5z m43.3 -13 c10 -2.7 20.9 -5.7 24.2 -6.6 3.3 -0.9 8 -2.2 10.5 -3 2.5 -0.7 11.6 -3.2 20.3 -5.5 10.1 -2.7 15.7 -4.7 15.7 -5.5 0 -0.7 1.6 -7.9 3.5 -16 2 -8.1 3.4 -14.8 3.3 -14.9 -0.2 -0.2 -16 8.9 -35.3 20.1 -19.2 11.2 -35.5 20.4 -36.2 20.4 -0.6 0 -1.3 0.4 -1.5 0.8 -0.1 0.5 -4.8 3.5 -10.3 6.7 -11.3 6.6 -14.3 8.5 -13.2 8.5 0.4 0 9 -2.2 19 -5z"></path>
  <path d="M253 246.1 c0 -2.2 0.5 -4.1 1 -4.1 0.6 0 1 -0.7 1 -1.5 0 -0.8 0.5 -1.5 1 -1.5 0.6 0 1 -0.7 1 -1.5 0 -0.8 0.5 -1.5 1 -1.5 0.6 0 1 -0.7 1 -1.5 0 -0.8 0.5 -1.5 1 -1.5 0.6 0 1 -0.7 1 -1.5 0 -0.8 0.5 -1.5 1 -1.5 0.6 0 1 -0.7 1 -1.5 0 -0.8 0.7 -1.5 1.5 -1.5 0.8 0 1.5 -0.9 1.5 -2 0 -1.1 0.5 -2 1 -2 0.6 0 1 -0.7 1 -1.5 0 -0.8 0.5 -1.5 1 -1.5 0.6 0 1 -0.7 1 -1.5 0 -0.8 0.5 -1.5 1 -1.5 0.6 0 1 -0.7 1 -1.5 0 -0.8 0.5 -1.5 1 -1.5 0.6 0 1 -0.7 1 -1.5 0 -0.8 0.5 -1.5 1 -1.5 0.6 0 1 -0.7 1 -1.5 0 -0.8 0.5 -1.5 1 -1.5 0.6 0 1 -0.7 1 -1.5 0 -0.9 0.9 -1.5 2.5 -1.5 2.2 0 2.5 -0.4 2.5 -3.5 0 -1.9 0.5 -3.5 1 -3.5 0.6 0 1 -0.7 1 -1.5 0 -0.8 0.5 -1.5 1 -1.5 0.6 0 1 -0.7 1 -1.5 0 -0.8 0.5 -1.5 1 -1.5 0.6 0 1 -0.7 1 -1.5 0 -0.8 0.5 -1.5 1 -1.5 0.6 0 1 -0.7 1 -1.5 0 -0.8 0.5 -1.5 1 -1.5 0.6 0 1 -0.7 1 -1.5 0 -0.8 0.5 -1.5 1 -1.5 0.6 0 1 -0.7 1 -1.5 0 -0.8 0.7 -1.5 1.5 -1.5 0.8 0 1.5 -0.9 1.5 -2 0 -1.1 0.5 -2 1 -2 0.6 0 1 -0.7 1 -1.5 0 -0.8 0.5 -1.5 1 -1.5 0.6 0 1 -0.7 1 -1.5 0 -0.8 0.5 -1.5 1 -1.5 0.6 0 1 -0.7 1 -1.5 0 -0.8 0.5 -1.5 1 -1.5 0.6 0 1 -0.7 1 -1.5 0 -0.8 0.5 -1.5 1 -1.5 0.6 0 1 -0.7 1 -1.5 0 -0.8 0.5 -1.5 1 -1.5 0.6 0 1 -0.7 1 -1.5 0 -0.8 0.5 -1.5 1 -1.5 0.6 0 1 -0.7 1 -1.5 0 -0.8 0.7 -1.5 1.5 -1.5 0.8 0 1.5 -0.9 1.5 -1.9 0 -1.1 0.3 -2.1 0.8 -2.4 0.4 -0.2 0 -0.2 -0.8 0.1 -0.8 0.2 -2.6 0.7 -4 1 -1.3 0.3 -3.1 1.1 -3.8 1.9 -0.7 0.7 -2.9 1.3 -4.8 1.3 -2.4 0 -3.4 0.5 -3.4 1.5 0 1 -1.1 1.5 -3.5 1.5 -2.3 0 -3.5 0.5 -3.5 1.3 0 1.8 -4.3 3.7 -8 3.7 -1.9 0 -3 0.5 -3 1.3 0 1.7 -11.5 6.7 -15.2 6.7 -1.8 0 -2.8 0.5 -2.8 1.5 0 0.8 -1.1 1.7 -2.5 2.1 -1.4 0.3 -2.5 1.2 -2.5 2 0 0.8 -0.9 1.4 -2.1 1.4 -1.6 0 -2 -0.5 -1.7 -2.7 0.3 -2.8 -1.7 -1.9 71.6 -34.3 1.8 -0.8 2.2 -0.7 1.6 0.2 -1.4 2.4 -70.7 104.3 -72.6 106.7 l-1.8 2.4 0 -4.2z"></path>
  <path d="M380 249.4 c0 -1.3 5.4 -10.4 6.2 -10.4 1.2 0 1 5.5 -0.4 8.5 -0.7 1.6 -1.9 2.5 -3.5 2.5 -1.2 0 -2.3 -0.3 -2.3 -0.6z"></path>
  <path d="M215.3 195.2 c-17.7 -29.5 -32 -53.8 -31.8 -54 0.7 -0.7 25.5 11.7 25.5 12.7 0 1.8 -5.8 1.2 -10 -0.9 -2.2 -1.1 -4.2 -2 -4.5 -2 -0.3 0 -0.5 0.9 -0.5 2 0 1.1 0.7 2 1.5 2 0.9 0 1.5 0.9 1.5 2.5 0 1.6 0.6 2.5 1.5 2.5 0.9 0 1.5 0.9 1.5 2.5 0 1.5 0.6 2.5 1.4 2.5 0.8 0 1.8 1 2.2 2.2 0.3 1.2 1.3 2.8 2 3.6 0.8 0.7 1.4 2 1.4 2.8 0 0.8 0.4 1.4 0.9 1.4 0.5 0 1.3 1 1.7 2.2 0.3 1.2 1.3 2.8 2 3.6 0.8 0.7 1.4 2 1.4 2.8 0 0.8 0.5 1.4 1 1.4 0.6 0 1 1.1 1 2.5 0 1.6 0.6 2.5 1.5 2.5 0.9 0 1.5 0.9 1.5 2.5 0 1.6 0.6 2.5 1.5 2.5 0.9 0 1.5 0.9 1.5 2.5 0 1.6 0.6 2.5 1.5 2.5 0.9 0 1.5 0.9 1.5 2.5 0 1.6 0.6 2.5 1.5 2.5 0.9 0 1.5 0.9 1.5 2.5 0 1.5 0.6 2.5 1.5 2.5 0.8 0 1.7 1.1 2.1 2.5 0.3 1.4 1 2.5 1.4 2.5 0.5 0 1.2 1 1.6 2.2 0.3 1.2 1.3 2.8 2 3.6 0.8 0.7 1.4 2 1.4 2.8 0 0.8 0.5 1.4 1 1.4 0.6 0 1 1.1 1 2.5 0 1.6 0.6 2.5 1.5 2.5 0.9 0 1.5 0.9 1.5 2.5 0 1.6 0.6 2.5 1.5 2.5 0.9 0 1.5 -0.9 1.5 -2.5 0 -1.8 0.5 -2.5 2 -2.5 1.8 0 2 0.7 2 8.3 0 4.5 -0.4 8.7 -0.8 9.3 -0.4 0.7 -14.1 -21.1 -32.9 -52.4z"></path>
  <path d="M62.8 233.3 c1.1 -1.6 3.4 -4.1 5.1 -5.7 l3.1 -3 0 3.5 c0 4.3 -3.4 7.9 -7.4 7.9 l-2.7 0 1.9 -2.7z"></path>
  <path d="M388 234.4 c0 -1.3 5.4 -10.4 6.2 -10.4 0.4 0 0.8 -0.7 0.8 -1.5 0 -1.6 2 -1.9 5.8 -0.9 3.9 1.1 2.7 3.4 -1.8 3.4 -3.6 0 -4 0.3 -4 2.5 0 4.1 -2.1 7.5 -4.7 7.5 -1.2 0 -2.3 -0.3 -2.3 -0.6z"></path>
  <path d="M469.6 232.8 c-1.2 -4.5 -0.7 -6.8 1.4 -6.8 1.7 0 2 0.7 2 4.5 0 4.9 -2.3 6.4 -3.4 2.3z"></path>
  <path d="M41 222.3 c0 -7.2 0.8 -10.3 2.6 -10.3 1.1 0 1.4 1.9 1.4 8 0 7.3 -0.2 8 -2 8 -1.8 0 -2 -0.7 -2 -5.7z"></path>
  <path d="M253 220.8 c0 -8.6 0.7 -11.8 2.6 -11.8 1.1 0 1.4 2.1 1.4 9.5 0 8.8 -0.1 9.5 -2 9.5 -1.8 0 -2 -0.7 -2 -7.2z"></path>
  <path d="M468.6 221.8 c-1.2 -4.5 -0.7 -6.8 1.4 -6.8 1.7 0 2 0.7 2 4.5 0 4.9 -2.3 6.4 -3.4 2.3z"></path>
  <path d="M90.8 216.7 c-6 -1.7 -10.8 -3.5 -10.8 -4.1 0 -1.4 17.3 -44.6 17.7 -44.2 0.2 0.1 1.2 7.2 2.3 15.7 1.1 8.5 2.2 17.1 2.6 19.2 0.5 3.2 0.3 3.7 -1.4 3.7 -1.8 0 -2.1 -1.1 -3.2 -10.2 -0.6 -5.7 -1.3 -10.9 -1.5 -11.5 -0.6 -1.9 -2.5 -1.6 -2.5 0.5 0 3 -5.4 16.2 -6.7 16.2 -0.8 0 -1.3 1.2 -1.3 2.9 0 1.6 -0.3 3.6 -0.6 4.5 -0.4 1.1 0.2 1.7 2.3 2.2 1.5 0.4 3 1 3.3 1.4 0.3 0.4 2.4 0.9 4.8 1.3 l4.2 0.5 0 -3.4 c0 -4.8 2.7 -4.6 3.5 0.4 1.3 8.1 1.3 8.2 -0.4 8.1 -0.9 -0.1 -6.4 -1.5 -12.3 -3.2z"></path>
  <path d="M410.8 218.3 c-3.1 -0.8 -2.1 -3.3 1.3 -3.3 2.1 0 3 -0.4 2.7 -1.2 -0.3 -0.7 -2.2 -6.5 -4.3 -12.8 l-3.9 -11.5 -2.2 8.8 c-1.2 4.8 -2.5 10.3 -2.8 12.2 -0.7 3.4 -0.6 3.5 2.4 3.5 2.4 0 3 0.4 3 2.1 0 2 -0.4 2.1 -5.1 1.6 -2.9 -0.4 -5.3 -0.8 -5.5 -0.9 -0.3 -0.4 8.6 -39.1 9.2 -39.7 0.8 -0.8 1.2 0.3 8.3 21.2 l7 20.7 -4.2 -0.1 c-2.3 -0.1 -5 -0.3 -5.9 -0.6z"></path>
  <path d="M415.8 192 c-4.2 -12.6 -7.2 -23.2 -6.8 -23.5 0.5 -0.3 3.8 -1.7 7.4 -3 l6.6 -2.5 0 2.3 c0 2 -0.9 2.7 -5.5 4.2 -3 1.1 -5 2.2 -4.4 2.5 0.5 0.4 1.2 2.4 1.6 4.6 0.3 2.1 0.9 4.1 1.3 4.4 0.4 0.3 2.8 6.9 5.4 14.8 4.4 13.2 5.3 19.2 2.8 19.2 -0.4 0 -4.2 -10.3 -8.4 -23z"></path>
  <path d="M467.6 209.8 c-1.2 -4.8 -0.7 -7.8 1.4 -7.8 1.7 0 2 0.7 2 5 0 3.6 -0.4 5 -1.4 5 -0.7 0 -1.6 -1 -2 -2.2z"></path>
  <path d="M71.6 201.3 c-2.1 -4.3 -4.5 -9.3 -5.2 -11 -1.4 -3.2 -1.3 -3.3 0.9 -3.3 1.9 0 2.9 1.2 5.2 6 1.6 3.3 3.2 5.7 3.6 5.3 0.3 -0.5 1.4 -2.9 2.4 -5.5 1 -2.7 2.2 -4.8 2.6 -4.8 0.5 0 0.9 -1.1 0.9 -2.5 0 -1.4 0.5 -2.5 1 -2.5 0.6 0 1 -0.9 1 -1.9 0 -2.7 4.1 -13.1 5.1 -13.1 0.5 0 0.9 -1.1 0.9 -2.5 0 -1.4 0.3 -2.5 0.8 -2.5 0.8 0 2.1 -5.8 8.1 -35 5.9 -28.9 5.7 -27 3.3 -27 -1.4 0 -2.2 0.8 -2.4 2.3 -0.2 1.5 -1.1 2.3 -3 2.5 -1.9 0.2 -2.8 1 -3 2.5 -0.2 1.6 -1.1 2.3 -3 2.5 -2 0.2 -2.8 0.9 -2.8 2.3 0 1.3 -0.7 1.9 -2.4 1.9 -1.8 0 -2.5 0.6 -2.8 2.3 -0.2 1.5 -1.1 2.3 -3 2.5 -1.9 0.2 -2.8 1 -3 2.5 -0.2 1.3 -1.1 2.3 -2.3 2.5 -1.1 0.2 -2.5 1.3 -3 2.5 -0.6 1.2 -2 2.3 -3.1 2.5 -1.2 0.2 -2.4 1.2 -2.7 2.3 -0.3 1 -1.3 1.9 -2.4 1.9 -1 0 -2.3 1 -2.8 2.3 -0.6 1.2 -1.9 2.3 -3 2.5 -1.1 0.2 -2.5 1.3 -3 2.5 -0.6 1.2 -2 2.3 -3.1 2.5 -1.2 0.2 -2.4 1.2 -2.7 2.3 -0.6 2.4 -2.3 2.5 -3.6 0.1 -0.8 -1.4 0.6 -3 8.2 -9.3 42.4 -34.8 54.4 -44.6 55.6 -45.4 1.7 -1 2 -3 -6 36.5 l-6 29.5 -10.1 25.8 c-5.6 14.1 -10.4 25.7 -10.8 25.7 -0.3 0 -2.3 -3.5 -4.4 -7.7z"></path>
  <path d="M427 203 c0 -1.6 1.2 -5.4 2.7 -8.5 2.1 -4.3 3.2 -5.5 5 -5.5 2.6 0 2.4 0.9 -2.7 10.9 -3.3 6.7 -5 7.7 -5 3.1z"></path>
  <path d="M246 195.5 c0 -8.8 0.1 -9.5 2 -9.5 1.8 0 2 0.7 2 7.3 0 8.5 -0.7 11.7 -2.6 11.7 -1.1 0 -1.4 -2.1 -1.4 -9.5z"></path>
  <path d="M34 197 c0 -6.3 0.2 -7 2 -7 1.7 0 2 0.7 2 4.8 0 6.1 -0.9 9.2 -2.6 9.2 -1.1 0 -1.4 -1.7 -1.4 -7z"></path>
  <path d="M42 193.8 c0 -8.6 0.7 -11.8 2.6 -11.8 1.1 0 1.4 2.1 1.4 9.5 0 8.8 -0.1 9.5 -2 9.5 -1.8 0 -2 -0.7 -2 -7.2z"></path>
  <path d="M466.6 196.8 c-1.1 -4.2 -0.7 -5.8 1.4 -5.8 1.7 0 2 0.7 2 4 0 4.5 -2.3 5.7 -3.4 1.8z"></path>
  <path d="M465.6 186.8 c-1.2 -4.8 -0.7 -7.8 1.4 -7.8 1.7 0 2 0.7 2 5 0 3.6 -0.4 5 -1.4 5 -0.7 0 -1.6 -1 -2 -2.2z"></path>
  <path d="M55.4 167.9 c-8.8 -17.8 -8.9 -17.9 -6.1 -17.9 1.9 0 3.2 1.8 7.5 10.5 2.8 5.8 5.2 11.2 5.2 12 0 0.8 0.5 1.5 1 1.5 0.6 0 1 1.6 1 3.5 0 1.9 -0.4 3.5 -1 3.5 -0.5 0 -3.9 -5.9 -7.6 -13.1z"></path>
  <path d="M488 177.3 c0 -1.6 0.7 -5.5 1.4 -8.8 0.8 -3.3 1.2 -6.3 1 -6.6 -0.2 -0.4 -1.8 -1 -3.4 -1.4 -2.1 -0.5 -3 -1.2 -3 -2.7 0 -1.7 0.5 -2 2.8 -1.5 1.5 0.3 4 1 5.6 1.6 3.2 1.3 3.2 0.4 0 14.9 -1.1 4.7 -2.1 7.2 -3 7.2 -0.9 0 -1.4 -1.1 -1.4 -2.7z"></path>
  <path d="M440 176 c0 -1.6 1.2 -5.4 2.7 -8.5 2.1 -4.3 3.2 -5.5 5 -5.5 2.6 0 2.4 0.9 -2.7 10.9 -3.3 6.7 -5 7.7 -5 3.1z"></path>
  <path d="M35 169 c0 -6.3 0.2 -7 2 -7 1.7 0 2 0.7 2 4.8 0 6.1 -0.9 9.2 -2.6 9.2 -1.1 0 -1.4 -1.7 -1.4 -7z"></path>
  <path d="M244.3 174.8 c-1.4 -0.7 -2.3 -2 -2.3 -3.5 0 -2.3 0.1 -2.3 3.6 -0.8 2 0.8 3.8 1.5 4 1.5 0.2 0 0.4 0.9 0.4 2 0 2.2 -2.1 2.5 -5.7 0.8z"></path>
  <path d="M464.6 173.8 c-1.2 -4.5 -0.7 -6.8 1.4 -6.8 1.7 0 2 0.7 2 4.5 0 4.9 -2.3 6.4 -3.4 2.3z"></path>
  <path d="M229 167 c0 -0.5 -0.7 -1 -1.5 -1 -0.8 0 -3.9 -1.2 -7 -2.7 -4.3 -2.1 -5.5 -3.2 -5.5 -5 0 -2 0.3 -2.1 2.4 -1.3 5.6 2.1 18.6 9.1 18.6 10 0 0.6 -1.6 1 -3.5 1 -1.9 0 -3.5 -0.4 -3.5 -1z"></path>
  <path d="M219.6 153 c-16 -7.7 -29.2 -14.3 -29.5 -14.7 -0.4 -0.3 3.2 -0.3 7.9 0 4.7 0.4 18.8 1.2 31.3 1.9 l22.8 1.2 -0.6 9.6 c-0.7 11.5 -1.4 16 -2.3 16 -0.4 0 -13.7 -6.3 -29.6 -14z"></path>
  <path d="M255.4 157.3 c0.4 -5.4 0.9 -11.2 1.2 -12.9 l0.4 -3.1 14.3 -0.7 c7.8 -0.3 21.2 -1.1 29.7 -1.7 20.7 -1.5 21.9 -1.2 12.8 2.8 -4 1.8 -18.5 8.2 -32.2 14.3 -13.7 6 -25.3 11 -25.9 11 -0.5 0 -0.6 -3.9 -0.3 -9.7z"></path>
  <path d="M406.6 161.2 c-0.3 -2 -2.4 -17 -4.6 -33.2 -2.2 -16.2 -4.3 -31.4 -4.6 -33.7 l-0.6 -4.3 4.3 0 c5.8 0 8.9 0.9 8.9 2.6 0 1 -1.3 1.4 -4.5 1.4 -4.2 0 -4.5 0.2 -4.1 2.3 0.3 1.2 1.7 11 3.2 21.7 1.4 10.7 3.3 24.3 4.2 30.2 l1.7 10.6 22.3 -8.9 c12.3 -4.9 23 -8.9 23.8 -8.9 0.8 0 1.4 0.8 1.4 1.8 0 1.4 -4.7 3.7 -22.2 10.7 -12.3 4.9 -23.7 9.4 -25.5 10.2 l-3.1 1.3 -0.6 -3.8z"></path>
  <path d="M463.6 162.8 c-1.2 -4.5 -0.7 -6.8 1.4 -6.8 1.7 0 2 0.7 2 4.5 0 4.9 -2.3 6.4 -3.4 2.3z"></path>
  <path d="M393.3 160 c-8.6 -4.1 -10.4 -6 -5.3 -6 3.7 0 8 1.9 8 3.7 0 0.7 0.6 1.3 1.3 1.3 1.1 0 1.2 -1.5 0.1 -8.7 -0.6 -4.9 -2.5 -18.1 -4 -29.5 -2.5 -18.3 -3 -20.8 -4.6 -20.8 -1 0 -1.8 0.7 -1.8 1.5 0 0.9 -0.9 1.5 -2.5 1.5 -1.8 0 -2.5 0.5 -2.5 2 0 1.3 -0.7 2 -2 2 -1.1 0 -2 0.7 -2 1.5 0 0.8 -0.8 1.5 -1.9 1.5 -1 0 -2.1 0.9 -2.4 2 -0.3 1.2 -1.4 2 -2.6 2 -1.2 0 -2.1 0.6 -2.1 1.5 0 0.8 -0.9 1.5 -2 1.5 -1.1 0 -2 0.7 -2 1.5 0 0.8 -0.9 1.5 -2 1.5 -1.1 0 -2 0.7 -2 1.5 0 0.9 -0.9 1.5 -2.5 1.5 -1.8 0 -2.5 0.5 -2.5 2 0 1.5 -0.7 2 -2.5 2 -1.8 0 -2.5 0.5 -2.5 2 0 1.3 -0.7 2 -2 2 -1.1 0 -2 0.6 -2 1.4 0 0.8 -0.8 1.7 -1.7 1.9 -1 0.3 -0.4 0.5 1.4 0.6 5.2 0.2 10.3 3.1 10.3 5.8 0 2.2 -0.1 2.3 -3.2 0.9 -8.6 -3.7 -14.8 -6.8 -14.7 -7.4 0 -0.4 3 -3 6.7 -5.8 3.7 -2.7 15.6 -11.9 26.5 -20.3 10.9 -8.4 20.1 -15.1 20.4 -14.7 0.4 0.4 10.2 67.1 10.3 70.4 0 0.6 -2.1 -0.2 -9.7 -3.8z"></path>
  <path d="M428.2 161.8 c0.3 -0.7 5.8 -3.4 12.4 -6 16.7 -6.7 15.6 -6.4 14.3 -3.4 -0.9 1.9 -2 2.6 -4.1 2.6 -1.8 0 -2.8 0.5 -2.8 1.5 0 0.9 -0.9 1.5 -2.5 1.5 -1.4 0 -2.5 0.4 -2.5 0.8 0 1.2 -9 4.2 -12.3 4.2 -1.8 0 -2.7 -0.5 -2.5 -1.2z"></path>
  <path d="M101.4 155.3 c0.3 -1 2.8 -13 5.6 -26.8 7.8 -38.5 8.1 -39.7 9.4 -38.7 16.1 12.6 54.6 43.6 54.6 44.1 0 0.7 -66.7 23.1 -68.8 23.1 -0.8 0 -1.1 -0.7 -0.8 -1.7z m62.6 -23.5 c0 -0.5 -0.9 -0.8 -2.1 -0.8 -1.2 0 -2.3 -0.8 -2.6 -2 -0.3 -1.1 -1.4 -2 -2.5 -2 -1.1 0 -2.2 -0.9 -2.5 -2 -0.3 -1.1 -1.4 -2 -2.4 -2 -1.2 0 -1.9 -0.7 -1.9 -2 0 -1.5 -0.7 -2 -2.6 -2 -1.7 0 -2.8 -0.6 -3.1 -2 -0.3 -1.1 -1.4 -2 -2.4 -2 -1.2 0 -1.9 -0.7 -1.9 -2 0 -1.5 -0.7 -2 -2.5 -2 -1.8 0 -2.5 -0.5 -2.5 -2 0 -1.5 -0.7 -2 -2.5 -2 -1.3 0 -2.8 -0.6 -3.2 -1.3 -0.4 -0.8 -1.6 -1.6 -2.5 -2 -1 -0.3 -1.8 -1.6 -1.8 -2.7 0 -1.5 -0.7 -2 -2.5 -2 -1.9 0 -2.5 -0.5 -2.5 -2.1 0 -1.2 -0.5 -1.9 -1.2 -1.7 -0.7 0.3 -3.6 12.2 -7 28.4 -3.1 15.3 -5.7 28 -5.8 28.1 0 0.1 13.1 -4.2 29 -9.5 16 -5.3 29 -10 29 -10.4z"></path>
  <path d="M471.3 155.8 c-3.2 -1.1 -4.8 -4.8 -2.1 -4.8 2.9 0 11.8 3.5 11.8 4.7 0 1.6 -5 1.6 -9.7 0.1z"></path>
  <path d="M377.3 152.5 c-5.9 -2.7 -6.8 -4.5 -2.3 -4.5 4.6 0 8 2 8 4.7 0 1.2 -0.1 2.3 -0.2 2.3 -0.2 0 -2.7 -1.1 -5.5 -2.5z"></path>
  <path d="M462.7 151.8 c-0.7 -2.7 -0.3 -3.2 1.8 -2.5 1.9 0.8 2 4.7 0.1 4.7 -0.7 0 -1.6 -1 -1.9 -2.2z"></path>
  <path d="M486.8 152.2 c-5.6 -1.8 -6.4 -4.2 -1.5 -4.2 3.8 0 5 0.7 6.6 3.8 1.3 2.5 1.2 2.5 -5.1 0.4z"></path>
  <path d="M364.3 146.5 c-5.9 -2.7 -6.8 -4.5 -2.3 -4.5 4.6 0 8 2 8 4.7 0 1.2 -0.1 2.3 -0.2 2.3 -0.2 0 -2.7 -1.1 -5.5 -2.5z"></path>
  <path d="M469 146.6 c-6 -2.1 -6.5 -2.5 -6.8 -5.4 -0.3 -2.7 0 -3.2 1.7 -3.2 1.3 0 2.1 0.6 2.1 1.8 0 1.3 1.7 2.2 6.5 3.6 5 1.4 6.5 2.3 6.5 3.7 0 2.4 -1.8 2.3 -10 -0.5z"></path>
  <path d="M483.6 145.4 c-0.9 -2.3 -0.7 -7.4 0.2 -7.4 0.8 0 5.2 7.1 5.2 8.4 0 1.4 -4.8 0.5 -5.4 -1z"></path>
  <path d="M45 135.8 c0.1 -4 7.6 -56.7 8.1 -57.3 0.6 -0.5 53.8 7 54.5 7.8 0.4 0.4 -58.1 49.1 -61.3 51 -0.9 0.6 -1.3 0.2 -1.3 -1.5z m11.2 -11.2 c0.2 -1.3 1.1 -2.2 2.4 -2.4 1.2 -0.2 2.4 -1.2 2.7 -2.3 0.3 -1.2 1.4 -1.9 3 -1.9 1.9 0 2.6 -0.6 2.9 -2.2 0.2 -1.4 1.1 -2.4 2.3 -2.6 1.1 -0.2 2.5 -1.3 3 -2.5 0.6 -1.2 2 -2.3 3.1 -2.5 1.2 -0.2 2.4 -1.2 2.7 -2.3 0.3 -1.2 1.4 -1.9 3 -1.9 1.9 0 2.6 -0.6 2.9 -2.2 0.2 -1.5 1.1 -2.4 2.4 -2.6 1.2 -0.2 2.4 -1.2 2.7 -2.3 0.3 -1.2 1.4 -1.9 3 -1.9 1.9 0 2.6 -0.6 2.9 -2.2 0.2 -1.6 1.2 -2.5 3.3 -2.9 2 -0.4 2.5 -0.8 1.5 -1.2 -1.9 -0.7 -43.4 -6.7 -43.8 -6.3 -0.3 0.3 -4.5 29.5 -5.7 39.7 l-0.7 5.6 3 -0.5 c2.2 -0.3 3.2 -1 3.4 -2.6z"></path>
  <path d="M241.8 136.3 c-2.2 -0.5 -2.4 -3.3 -0.3 -3.3 0.8 0 1.5 -0.9 1.5 -2 0 -1.3 -0.7 -2 -2 -2 -1.1 0 -2 -0.7 -2 -1.5 0 -0.8 -0.4 -1.5 -1 -1.5 -0.5 0 -1 -0.7 -1 -1.5 0 -0.8 -0.4 -1.5 -1 -1.5 -0.5 0 -1 -0.7 -1 -1.5 0 -0.8 -0.4 -1.5 -1 -1.5 -0.5 0 -1 -0.7 -1 -1.5 0 -0.8 -0.4 -1.5 -1 -1.5 -0.5 0 -1 -0.7 -1 -1.5 0 -0.8 -0.4 -1.5 -1 -1.5 -0.5 0 -1 -0.7 -1 -1.5 0 -0.8 -0.4 -1.5 -1 -1.5 -0.5 0 -1 -0.7 -1 -1.5 0 -0.8 -0.4 -1.5 -1 -1.5 -0.5 0 -1 -0.7 -1 -1.5 0 -0.8 -0.4 -1.5 -1 -1.5 -0.5 0 -1 -0.7 -1 -1.5 0 -0.8 -0.4 -1.5 -1 -1.5 -0.5 0 -1 -0.7 -1 -1.5 0 -0.8 -0.4 -1.5 -1 -1.5 -0.5 0 -1 -0.7 -1 -1.5 0 -0.8 -0.4 -1.5 -1 -1.5 -0.5 0 -1 -0.7 -1 -1.5 0 -0.8 -0.4 -1.5 -1 -1.5 -0.5 0 -1 -0.7 -1 -1.5 0 -0.8 -0.4 -1.5 -1 -1.5 -0.5 0 -1 -0.7 -1 -1.5 0 -0.8 -0.4 -1.5 -1 -1.5 -0.5 0 -1 -0.7 -1 -1.5 0 -0.8 -0.4 -1.5 -1 -1.5 -0.5 0 -1 -0.5 -1 -1.1 0 -0.6 -0.6 -1.7 -1.4 -2.4 -1.2 -1.2 -1.5 -1.1 -2 1 -0.4 1.4 -1.1 2.5 -1.6 2.5 -0.6 0 -1 0.8 -1 1.7 0 2.5 -3.1 10.3 -4.1 10.3 -0.5 0 -0.9 1.1 -0.9 2.5 0 1.4 -0.4 2.5 -1 2.5 -0.5 0 -1 1.1 -1 2.5 0 1.6 -0.6 2.5 -1.5 2.5 -1 0 -1.5 1.1 -1.5 3.5 0 1.9 -0.4 3.5 -1 3.5 -0.5 0 -1 1.1 -1 2.5 0 1.4 -0.4 2.5 -1 2.5 -0.5 0 -1 0.8 -1 1.7 0 2.5 -3.1 10.3 -4.1 10.3 -0.5 0 -0.9 0.7 -0.9 1.5 0 0.9 -0.9 1.5 -2.1 1.5 -1.3 0 -1.9 -0.5 -1.6 -1.2 5.9 -15.1 25.1 -60.8 25.6 -60.8 0.5 0.1 43 63.1 43.9 65.2 0.4 0.8 -5.1 0.9 -8 0.1z"></path>
  <path d="M260.7 134 c1.7 -3 3.3 -3.9 3.3 -2 0 0.6 1.4 1 3 1 1.9 0 3 0.5 3 1.4 0 1.6 -3 2.6 -7.8 2.6 l-3.3 0 1.8 -3z"></path>
  <path d="M224.8 135.3 c-1 -0.2 -1.8 -1.1 -1.8 -1.9 0 -1 1.4 -1.4 5.5 -1.4 4.8 0 5.5 0.2 5.5 2 0 1.7 -0.6 2 -3.7 1.9 -2.1 -0.1 -4.6 -0.3 -5.5 -0.6z"></path>
  <path d="M278 134 c0 -1.8 0.7 -2 5.5 -2 4 0 5.5 0.4 5.5 1.4 0 1.6 -3 2.6 -7.7 2.6 -2.6 0 -3.3 -0.4 -3.3 -2z"></path>
  <path d="M477.2 133.5 c-0.7 -1.4 -1.2 -3.9 -1.2 -5.5 0 -2.2 -0.5 -3 -1.8 -3 -2.2 0 -5.2 -5.8 -5.2 -10 0 -2.3 -0.5 -3 -1.9 -3 -1.1 0 -2.3 -1.1 -2.9 -2.7 -1.1 -3 -2.7 -13.1 -1.9 -12.3 0.8 0.8 20.7 37.7 20.7 38.4 0 0.3 -1.1 0.6 -2.3 0.6 -1.6 0 -2.8 -0.9 -3.5 -2.5z"></path>
  <path d="M203.8 134.3 c-1 -0.2 -1.8 -1.1 -1.8 -1.9 0 -1.1 1.5 -1.4 6.5 -1.4 5.8 0 6.5 0.2 6.5 2 0 1.7 -0.6 2 -4.7 1.9 -2.7 -0.1 -5.6 -0.3 -6.5 -0.6z"></path>
  <path d="M297 133 c0 -1.7 0.7 -2 5 -2 3.6 0 5 0.4 5 1.4 0 1.5 -3 2.6 -7.2 2.6 -2.1 0 -2.8 -0.5 -2.8 -2z"></path>
  <path d="M189.8 133.3 c-1 -0.2 -1.8 -1.1 -1.8 -1.9 0 -1 1.3 -1.4 4.5 -1.4 3.8 0 4.5 0.3 4.5 2 0 1.5 -0.6 2 -2.7 1.9 -1.6 -0.1 -3.6 -0.3 -4.5 -0.6z"></path>
  <path d="M314 132 c0 -1.7 0.7 -2 5 -2 3.6 0 5 0.4 5 1.4 0 1.5 -3 2.6 -7.2 2.6 -2.1 0 -2.8 -0.5 -2.8 -2z"></path>
  <path d="M324.2 128.5 c-2.3 -4.7 -2.9 -10.5 -1.2 -10.5 0.9 0 5 7.4 7 12.6 0.8 2.1 0.7 2.4 -1.3 2.4 -1.7 0 -2.8 -1.1 -4.5 -4.5z"></path>
  <path d="M233.3 103.2 c-10.6 -15.7 -19.1 -28.7 -18.9 -29 0.9 -0.8 41.6 21 41.6 22.3 0 1.9 -3.1 35 -3.3 35.2 -0.1 0 -8.9 -12.8 -19.4 -28.5z"></path>
  <path d="M454 113.5 l0 -18.5 -10 0 c-9.4 0 -10 -0.1 -10 -2 0 -2 0.5 -2.1 11.8 -1.8 l11.7 0.3 0.3 20.3 c0.2 19.7 0.2 20.2 -1.8 20.2 -1.9 0 -2 -0.6 -2 -18.5z"></path>
  <path d="M147.6 108.8 c-22.6 -18 -27.5 -22.3 -26 -23 1.1 -0.4 13.6 -2.7 27.9 -5.2 14.3 -2.5 31.3 -5.5 37.9 -6.6 6.5 -1.1 12 -1.9 12.2 -1.7 0.3 0.3 -21.6 54.1 -23.3 57.2 -0.8 1.3 -6 -2.5 -28.7 -20.7z m32.4 1 c3.4 -8.4 6.6 -15.4 7.1 -15.6 0.5 -0.2 0.9 -1.4 0.9 -2.7 0 -1.3 0.7 -3 1.5 -3.9 0.8 -0.8 1.5 -2.4 1.5 -3.5 0 -1.2 0.5 -2.1 1 -2.1 0.6 0 1 -1.2 1 -2.6 0 -2.5 -0.2 -2.6 -3.2 -2 -3.3 0.7 -26 4.7 -50.2 8.8 -8.1 1.4 -12 2.5 -10.5 2.8 1.5 0.4 2.5 1.4 2.7 2.8 0.2 1.6 1 2.2 2.8 2.2 1.5 0 2.4 0.6 2.4 1.5 0 0.9 0.9 1.5 2.1 1.5 1.2 0 2.3 0.8 2.6 2 0.3 1.1 1.4 2 2.5 2 1.1 0 2.2 0.9 2.5 2 0.3 1.1 1.4 2 2.5 2 1.1 0 2.2 0.9 2.5 2 0.3 1.1 1.4 2 2.5 2 1.1 0 2.2 0.9 2.5 2 0.3 1.1 1.4 2 2.5 2 1.1 0 2.2 0.9 2.5 2 0.3 1.1 1.4 2 2.5 2 1.1 0 2.2 0.9 2.5 2 0.3 1.1 1.4 2 2.5 2 1.1 0 2.2 0.9 2.5 2 0.3 1.1 0.9 2 1.3 2 0.4 0 3.6 -6.9 7 -15.2z"></path>
  <path d="M328.4 117.3 c-9 -18.9 -8.8 -18.3 -6.1 -18.3 1.7 0 2.8 1.1 4.5 4.5 1.2 2.5 2.2 5.2 2.2 6 0 0.8 0.4 1.5 0.9 1.5 0.5 0 1.3 1.5 1.6 3.3 0.4 1.7 1.1 3.4 1.5 3.7 0.4 0.3 1.7 2.3 2.8 4.5 1.2 2.3 2.1 3.3 2.2 2.3 0 -1.1 0.8 -1.8 1.9 -1.8 1 0 2.1 -0.9 2.4 -2 0.3 -1.2 1.4 -2 2.6 -2 1.2 0 2.1 -0.6 2.1 -1.5 0 -0.8 0.8 -1.5 1.9 -1.5 1 0 2.1 -0.9 2.4 -2 0.3 -1.2 1.4 -2 2.6 -2 1.2 0 2.1 -0.6 2.1 -1.5 0 -0.8 0.9 -1.5 2 -1.5 1.1 0 2 -0.7 2 -1.5 0 -0.9 0.8 -1.9 1.8 -2.2 0.9 -0.4 2.1 -1.2 2.5 -2 0.4 -0.7 1.7 -1.3 2.7 -1.3 1.1 0 2 -0.7 2 -1.5 0 -0.8 0.8 -1.5 1.9 -1.5 1 0 2.1 -0.9 2.4 -2 0.3 -1.2 1.4 -2 2.6 -2 1.2 0 2.1 -0.6 2.1 -1.4 0 -0.8 0.7 -1.6 1.7 -1.8 0.9 -0.2 -13.8 -3.9 -32.7 -8.2 -24 -5.5 -34.5 -7.6 -34.8 -6.8 -0.2 0.7 -0.8 1.2 -1.3 1.2 -0.9 0 -3.9 -5.2 -3.9 -6.8 0 -0.4 17.9 3.3 39.8 8.4 21.8 5.1 40.4 9.4 41.2 9.6 1.1 0.3 -46.2 37.9 -51.8 41.2 -0.8 0.5 -3.2 -3.4 -7.8 -13.1z"></path>
  <path d="M264 129.3 c0 -1.2 17.4 -27.3 18.3 -27.3 0.4 0 0.7 1.6 0.7 3.5 0 1.9 -0.4 3.5 -1 3.5 -0.5 0 -1 0.7 -1 1.5 0 0.8 -0.4 1.5 -1 1.5 -0.5 0 -1 0.7 -1 1.5 0 0.8 -0.4 1.5 -1 1.5 -0.5 0 -1 0.7 -1 1.5 0 0.8 -0.4 1.5 -1 1.5 -0.5 0 -1 0.7 -1 1.5 0 0.8 -0.4 1.5 -1 1.5 -0.5 0 -1 0.7 -1 1.5 0 0.8 -0.4 1.5 -1 1.5 -0.5 0 -1 0.7 -1 1.5 0 0.8 -0.4 1.5 -1 1.5 -0.5 0 -1 0.7 -1 1.5 0 0.9 -0.9 1.5 -2.5 1.5 -1.4 0 -2.5 -0.3 -2.5 -0.7z"></path>
  <path d="M258 127.5 c0.2 -9 3 -32 4.2 -33 0.7 -0.7 8.6 -6.1 17.6 -11.9 l16.3 -10.6 -3.4 5.3 c-9.4 14.6 -33 50.3 -33.8 51.2 -0.6 0.5 -0.9 0.1 -0.9 -1z"></path>
  <path d="M315.7 110.5 c-0.9 -2 -1.7 -4.2 -1.7 -5 0 -0.8 -0.4 -1.5 -1 -1.5 -0.5 0 -1 -1.6 -1 -3.5 0 -1.9 0.4 -3.5 1 -3.5 0.9 0 6 9.2 8 14.6 0.8 2.1 0.7 2.4 -1.3 2.4 -1.7 0 -2.8 -1 -4 -3.5z"></path>
  <path d="M285.2 96.5 c2.9 -4.4 3.8 -4.4 3.8 0 0 3.2 -0.2 3.5 -3 3.5 l-3 0 2.2 -3.5z"></path>
  <path d="M316 90.9 c-5.1 -10 -5.3 -10.9 -2.7 -10.9 1.8 0 2.9 1.2 5 5.5 2.7 5.5 3.6 11.5 1.7 11.5 -0.5 0 -2.4 -2.7 -4 -6.1z"></path>
  <path d="M307.2 92.5 c-0.7 -1.4 -1.2 -3.2 -1.2 -4 0 -0.8 -0.4 -1.5 -1 -1.5 -0.5 0 -1 -1.6 -1 -3.5 0 -4.9 1.5 -4.4 4.5 1.6 4.6 8.9 4.8 9.9 2.1 9.9 -1.5 0 -2.7 -0.9 -3.4 -2.5z"></path>
  <path d="M291 88.3 c0 -1.2 10.2 -16.3 11 -16.3 0.5 0 1.3 1.4 1.9 3 0.7 2 0.7 3 0 3 -1.4 0 -3.9 2.6 -3.9 3.9 0 0.6 -0.4 1.1 -1 1.1 -0.5 0 -1 0.7 -1 1.5 0 0.8 -0.4 1.5 -1 1.5 -0.5 0 -1 0.7 -1 1.5 0 0.9 -0.9 1.5 -2.5 1.5 -1.4 0 -2.5 -0.3 -2.5 -0.7z"></path>
  <path d="M404.8 86.3 c-1 -0.2 -1.8 -1.1 -1.8 -1.9 0 -1.1 1.9 -1.4 9 -1.4 8.3 0 9 0.1 9 2 0 1.8 -0.6 2 -7.2 1.9 -4 -0.1 -8.1 -0.3 -9 -0.6z"></path>
  <path d="M396 84 c0 -1.3 0.7 -2 2 -2 1.3 0 2 0.7 2 2 0 1.3 -0.7 2 -2 2 -1.3 0 -2 -0.7 -2 -2z"></path>
  <path d="M446 84 c0 -1.5 -0.7 -2 -2.5 -2 -2 0 -2.5 -0.5 -2.5 -2.5 0 -2.1 -0.5 -2.5 -3 -2.5 -2.3 0 -3 -0.4 -3 -2 0 -1.5 -0.7 -2 -2.5 -2 -1.8 0 -2.5 -0.5 -2.5 -2 0 -1.5 -0.7 -2 -2.5 -2 -1.8 0 -2.5 -0.5 -2.5 -1.9 0 -1.4 -0.8 -2.1 -2.7 -2.3 -2 -0.2 -2.9 -0.9 -3.1 -2.5 -0.3 -1.7 -1 -2.3 -2.8 -2.3 -1.7 0 -2.4 -0.5 -2.4 -2 0 -1.5 -0.7 -2 -2.5 -2 -1.8 0 -2.5 -0.5 -2.5 -2 0 -1.5 -0.7 -2 -2.5 -2 -2 0 -2.5 -0.5 -2.5 -2.5 0 -2.1 -0.5 -2.5 -3 -2.5 -2.4 0 -3 -0.4 -3 -2.1 0 -1.8 -0.4 -2 -2.9 -1.4 -2.8 0.6 -3 0.4 -3.6 -2.9 -0.4 -1.9 -0.5 -3.9 -0.4 -4.4 0.3 -0.7 56.5 44 61.1 48.6 0.9 0.9 0.3 1.2 -2.5 1.2 -3 0 -3.7 -0.4 -3.7 -2z"></path>
  <path d="M385.8 84.3 c-2.5 -0.6 -2.3 -3.3 0.2 -3.3 1.9 0 2 -0.4 1.4 -6.5 -0.6 -5.6 -0.4 -6.5 0.9 -6.5 1.8 0 2.6 3.3 3 11.5 0.2 5.3 -0.8 6.1 -5.5 4.8z"></path>
  <path d="M375.3 81.8 c-4.6 -1 -6.1 -3.8 -2 -3.8 5.8 0 9.7 1.3 9.7 3.1 0 2.1 -1.2 2.2 -7.7 0.7z"></path>
  <path d="M82.5 78.1 c-13.8 -2.1 -25.7 -4 -26.5 -4.3 -0.9 -0.3 11.4 -9.1 30.3 -21.6 17.4 -11.7 31.7 -20.8 31.7 -20.4 0 0.5 -1.3 11.6 -3 24.7 -1.6 13.1 -3 24.2 -3 24.6 0 1.3 -1.9 1.1 -29.5 -3z m26.5 -1.8 c0 -1 0.9 -8.8 2 -17.3 1.9 -14.9 2.4 -21.9 1.3 -19.2 -0.2 0.6 -1.1 1.2 -1.9 1.2 -0.8 0 -1.4 0.5 -1.4 1 0 0.6 -0.7 1 -1.5 1 -0.8 0 -1.5 0.5 -1.5 1 0 0.6 -0.7 1 -1.5 1 -0.8 0 -1.5 0.5 -1.5 1 0 0.6 -0.7 1 -1.5 1 -0.8 0 -1.5 0.5 -1.5 1 0 0.6 -0.7 1 -1.5 1 -0.8 0 -1.5 0.5 -1.5 1 0 0.6 -0.7 1 -1.5 1 -0.8 0 -1.5 0.5 -1.5 1 0 0.6 -0.7 1 -1.5 1 -0.8 0 -1.5 0.5 -1.5 1 0 0.6 -0.7 1 -1.5 1 -0.8 0 -1.5 0.5 -1.5 1 0 0.6 -0.7 1 -1.5 1 -0.8 0 -1.5 0.5 -1.5 1 0 0.6 -0.7 1 -1.5 1 -0.8 0 -1.5 0.5 -1.5 1 0 0.6 -0.7 1 -1.5 1 -0.8 0 -1.5 0.5 -1.5 1 0 0.6 -0.7 1 -1.5 1 -0.8 0 -1.5 0.5 -1.5 1 0 0.6 -0.7 1 -1.5 1 -0.8 0 -1.5 0.5 -1.5 1 0 0.6 -0.7 1 -1.5 1 -0.8 0 -1.5 0.5 -1.5 1 0 0.6 -0.7 1 -1.5 1 -0.8 0 -1.5 0.4 -1.5 0.9 0 0.5 -0.8 1.1 -1.7 1.3 -1.5 0.3 35.7 6.2 42 6.7 1 0 1.7 -0.6 1.7 -1.6z"></path>
  <path d="M116.4 79.8 c0.3 -1.3 1.7 -12.6 3.3 -25.1 1.5 -12.5 3 -23.3 3.4 -23.8 0.8 -1.3 10.9 3.6 10.9 5.2 0 0.6 -1.7 0.9 -4.2 0.7 l-4.3 -0.3 -1.7 14 c-1 7.7 -2.2 16.9 -2.6 20.5 l-0.8 6.6 21.1 -3.7 c11.5 -2.1 26.9 -4.7 34 -6 13.6 -2.3 18.5 -3.8 12.8 -3.9 -3.9 0 -14.3 -4.9 -14.3 -6.7 0 -0.8 -1.2 -1.3 -3 -1.3 -1.6 0 -5.4 -1.2 -8.5 -2.7 -4.3 -2.1 -5.5 -3.2 -5.5 -5.1 0 -1.3 0.3 -2.1 0.8 -1.9 0.4 0.2 10.2 4.8 21.9 10.3 11.7 5.4 20.9 10.1 20.5 10.5 -0.4 0.3 -5.4 1.4 -11.2 2.3 -5.8 1 -24.3 4.2 -41.2 7.2 -17 3 -31 5.4 -31.3 5.4 -0.3 0 -0.3 -1 -0.1 -2.2z"></path>
  <path d="M395.6 78.8 c-1.1 -4.2 -0.7 -5.8 1.4 -5.8 1.7 0 2 0.7 2 4 0 4.5 -2.3 5.7 -3.4 1.8z"></path>
  <path d="M360.3 78.3 c-4.1 -0.9 -6.3 -1.9 -6.3 -2.9 0 -1.7 2.6 -1.8 10.2 -0.2 4.5 0.9 5.8 1.6 5.8 3 0 2.1 -1.3 2.2 -9.7 0.1z"></path>
  <path d="M328.8 71.1 c-10.8 -2.5 -19.9 -4.9 -20.3 -5.2 -0.3 -0.4 7.7 -4 17.7 -8.2 26.1 -10.8 23.8 -10.1 23.8 -7.2 0 2 -0.5 2.5 -2.5 2.5 -1.4 0 -2.5 0.5 -2.5 1 0 0.6 -1.1 1 -2.5 1 -1.4 0 -2.5 0.4 -2.5 0.9 0 1 -7.8 4.1 -10.3 4.1 -0.9 0 -1.7 0.5 -1.7 1 0 0.6 -1.1 1 -2.5 1 -1.4 0 -2.5 0.4 -2.5 0.9 0 0.6 -1.4 1.1 -3.2 1.3 -2 0.2 3.3 1.7 14.5 4.3 14.9 3.3 17.7 4.2 17.7 5.7 0 2.4 -0.3 2.4 -23.2 -3.1z"></path>
  <path d="M394.6 68.8 c-1 -3.8 -0.7 -4.8 1.4 -4.8 1.6 0 2 0.7 2 3.5 0 4 -2.4 4.9 -3.4 1.3z"></path>
  <path d="M386 62 c0 -4.5 2.3 -5.7 3.4 -1.7 1.1 4.1 0.7 5.7 -1.4 5.7 -1.7 0 -2 -0.7 -2 -4z"></path>
  <path d="M393.6 60.8 c-1 -3.8 -0.7 -4.8 1.4 -4.8 1.6 0 2 0.7 2 3.5 0 4 -2.4 4.9 -3.4 1.3z"></path>
  <path d="M385 52.5 c0 -4 2.4 -4.9 3.4 -1.2 1 3.7 0.7 4.7 -1.4 4.7 -1.6 0 -2 -0.7 -2 -3.5z"></path>
  <path d="M392.6 51.8 c-1.2 -4.5 -0.7 -6.8 1.4 -6.8 1.7 0 2 0.7 2 4.5 0 4.9 -2.3 6.4 -3.4 2.3z"></path>
  <path d="M355.2 46.8 c0.5 -1.4 30.4 -13.9 31.2 -13 0.3 0.3 0.6 1.4 0.6 2.4 0 1.3 -1 1.9 -4 2.4 -2.2 0.4 -4 1 -4 1.4 0 0.9 -7.9 4 -10.3 4 -0.9 0 -1.7 0.5 -1.7 1 0 0.6 -1.1 1 -2.5 1 -1.4 0 -2.5 0.5 -2.5 1 0 0.6 -1.6 1 -3.6 1 -2.3 0 -3.4 -0.4 -3.2 -1.2z"></path>
  <path d="M384 44 c0 -4.5 2.3 -5.7 3.4 -1.7 1.1 4.1 0.7 5.7 -1.4 5.7 -1.7 0 -2 -0.7 -2 -4z"></path>
  <path d="M140.3 42.7 c-3.2 -1.5 -4.3 -2.7 -4.3 -4.4 0 -2 0.3 -2.1 2.4 -1.3 5.2 2 12.6 6.1 12.6 7 0 1.7 -6.3 1 -10.7 -1.3z"></path>
 </g>
 <g fill="#9ebefd">
  <path d="M257.8 467.4 c0.5 -1 16.3 -28.4 34.9 -60.9 18.7 -32.4 37.2 -64.8 41.3 -71.8 l7.3 -12.9 14.1 13.9 c7.8 7.6 18.8 18.4 24.6 24 5.7 5.6 10.2 10.4 10 10.6 -0.9 0.8 -126.4 94.2 -129.9 96.6 -2.8 2.1 -3.2 2.1 -2.3 0.5z"></path>
  <path d="M254.6 359.8 c-0.3 -3.5 -0.7 -25.6 -1 -49.3 l-0.5 -43 4.7 8 c30.1 51.7 38 66.1 36.9 67.1 -1.4 1.3 -38.3 23.4 -39 23.4 -0.3 0 -0.8 -2.8 -1.1 -6.2z"></path>
  <path d="M396 361.9 c0 -0.9 1.8 -9.6 4 -19.5 2.1 -9.8 8.4 -39 14 -64.9 5.5 -25.8 10.4 -47.8 10.8 -48.9 0.7 -1.5 4.4 2 22.7 21.3 12.1 12.8 22.1 23.6 22.3 24.1 0.2 0.5 -15.6 19.9 -35 43.1 -19.4 23.1 -36.1 43.1 -37 44.3 -1.4 1.6 -1.8 1.8 -1.8 0.5z"></path>
  <path d="M289.7 321.1 c-5.3 -9.2 -9.7 -17.1 -9.7 -17.5 0 -0.3 1.1 -0.6 2.5 -0.6 2.5 0 5.5 4.1 5.5 7.5 0 0.8 0.5 1.5 1 1.5 0.6 0 1 1.1 1 2.4 0 1.5 0.7 2.6 2 2.9 1.2 0.3 2 1.4 2 2.6 0 1.2 0.4 2.1 1 2.1 0.5 0 1.2 1.1 1.6 2.5 0.3 1.4 1 2.5 1.5 2.5 0.5 0 0.9 0.9 0.9 2 0 1.1 0.5 2 1 2 0.6 0 1 1.6 1 3.5 0 1.9 -0.3 3.5 -0.8 3.5 -0.4 0 -5.1 -7.6 -10.5 -16.9z"></path>
  <path d="M320 324.5 c0 -2.2 0.4 -2.5 3.5 -2.5 4.3 0 4.4 1 0.6 3.3 -3.8 2.2 -4.1 2.2 -4.1 -0.8z"></path>
  <path d="M354 298.6 c0 -0.3 1.3 -2.9 2.9 -5.8 1.5 -2.9 10.6 -19.9 20.1 -37.8 9.5 -17.9 17.5 -32.8 17.9 -33.1 0.8 -0.9 23.1 1.2 23.1 2.1 0 0.4 -10.2 12.6 -22.7 27.1 -33.1 38.6 -41.3 48 -41.3 47.5z"></path>
  <path d="M272.5 291.3 c-2.1 -3.8 -5 -8.7 -6.3 -11 l-2.4 -4.3 3 0 c2.4 0 3.3 0.6 4.4 3 1.5 3.4 2.8 3.9 2.8 1 0 -1.1 0.5 -2 1 -2 2.2 0 6 3.3 6 5.1 0 1.5 -0.7 1.9 -3.5 1.9 -3.1 0 -3.5 0.3 -3.5 2.5 0 1.8 0.5 2.5 2 2.5 1.7 0 2 0.7 2 4 0 2.2 -0.4 4 -0.8 4 -0.4 0 -2.5 -3 -4.7 -6.7z"></path>
  <path d="M260.6 270.9 c-1 -1.7 -1.6 -3.2 -1.4 -3.4 0.9 -1 4.8 2.8 4.8 4.6 0 2.8 -1.3 2.3 -3.4 -1.2z"></path>
  <path d="M471.6 253.3 c-0.4 -4.8 -1.3 -15.8 -2.1 -24.3 -3.9 -44 -6.7 -79.1 -6.3 -79.5 0.4 -0.4 30.6 9 31.4 9.8 0.4 0.4 -21.2 101.7 -21.9 102.4 -0.3 0.2 -0.8 -3.6 -1.1 -8.4z"></path>
  <path d="M253.5 214 c0.4 -19.5 0.8 -36.8 1.1 -38.5 0.4 -2.6 1.3 -3.4 6.2 -5.4 3.1 -1.4 12.5 -5.5 20.7 -9.2 31.4 -14.1 44.8 -19.9 45.1 -19.6 0.4 0.3 -70.9 105.4 -72.6 107.1 -0.7 0.7 -0.8 -11.1 -0.5 -34.4z"></path>
  <path d="M414.5 218.4 c-1.1 -0.2 -5.5 -0.6 -9.7 -0.9 -4.9 -0.4 -7.8 -1.1 -7.8 -1.8 -0.1 -2.4 8.5 -37.7 9.1 -37.7 0.6 0 13.9 38.6 13.9 40.3 0 0.7 -1.5 0.7 -5.5 0.1z"></path>
  <path d="M423.5 213.9 c-3.1 -8.7 -14.5 -43.2 -14.5 -44.2 0.1 -1.2 46 -20 46 -18.7 0 0.6 -29.9 63.1 -30.6 63.9 -0.2 0.2 -0.6 -0.2 -0.9 -1z"></path>
  <path d="M371 149.3 c-17.3 -7.9 -31.6 -14.6 -31.8 -14.8 -0.2 -0.1 5.7 -4.9 13 -10.6 7.3 -5.7 19.3 -15 26.6 -20.7 7.4 -5.7 13.6 -10.2 13.8 -9.9 0.2 0.2 1.8 10.3 3.5 22.3 1.6 12 3.8 27.8 4.8 34.9 1 7.2 1.8 13.1 1.7 13.2 -0.1 0.1 -14.3 -6.4 -31.6 -14.4z"></path>
  <path d="M476.3 148.7 l-13.2 -4.2 -0.6 -4 c-0.3 -2.2 -0.5 -12.8 -0.3 -23.5 l0.3 -19.5 14.8 27.2 c8.1 15 14.7 27.4 14.7 27.8 0 1 -2.4 0.4 -15.7 -3.8z"></path>
  <path d="M260 136.1 c0 -0.8 9 -14.7 32.7 -50.6 l9.2 -13.9 4.9 10.4 c2.7 5.8 7.5 15.9 10.7 22.5 9.5 20.2 12.8 27.5 12.4 27.9 -0.2 0.2 -13.9 1.1 -30.4 2 -16.5 0.9 -32.1 1.8 -34.7 2 -2.7 0.3 -4.8 0.1 -4.8 -0.3z"></path>
  <path d="M330.2 120.2 c-17.3 -36.2 -23 -48.7 -22.7 -49 0.5 -0.6 80.5 18.1 80.5 18.7 -0.1 0.5 -32.9 26.2 -48.4 37.8 l-4.3 3.3 -5.1 -10.8z"></path>
  <path d="M407.5 86.1 l-10.9 -0.6 -1.8 -15.5 c-0.9 -8.5 -2.1 -19.5 -2.7 -24.4 -0.6 -5 -0.9 -9.2 -0.6 -9.4 0.3 -0.4 56.4 44.6 61 48.9 1.9 1.9 1.5 1.9 -16 1.7 -9.9 -0.1 -22.9 -0.4 -29 -0.7z"></path>
  <path d="M385.5 84 c-1.6 -0.4 -5.9 -1.4 -9.5 -2.3 -36.5 -8.2 -64.8 -14.9 -66.4 -15.5 -1.4 -0.6 1.5 -2.2 12 -6.4 7.7 -3.1 24.9 -10.2 38.4 -15.8 13.5 -5.5 25 -9.8 25.6 -9.6 0.6 0.2 1.4 3.5 1.7 7.3 1 11 3.6 35.5 4.3 39.6 0.6 4.1 0.1 4.3 -6.1 2.7z"></path>
 </g>
 <g fill="#ef8fe3">
  <path d="M232.5 456.6 c-6.6 -5 -33.1 -24.8 -59 -44 -64.6 -48.1 -69.5 -51.7 -69.5 -52.2 0 -0.3 5.1 -2.9 11.2 -5.8 6.2 -3 18.4 -8.8 27.1 -13 8.6 -4.2 16.1 -7.6 16.6 -7.6 0.5 0 16.1 23.3 34.7 51.8 18.5 28.4 37.9 58.1 43.1 66 5.1 7.8 8.9 14.2 8.5 14.1 -0.4 -0.1 -6.1 -4.2 -12.7 -9.3z"></path>
  <path d="M232 359.4 c-9 -4.1 -16.7 -7.7 -17.2 -8.2 -0.4 -0.4 2.8 -9 7.1 -19.2 7.3 -17.1 17.4 -41.1 23.4 -55.4 l2.5 -6 0.6 21.5 c1.3 47.4 1.6 74.9 0.9 74.8 -0.5 0 -8.2 -3.4 -17.3 -7.5z"></path>
  <path d="M239 271.2 c0 -1.1 3.9 -4.7 4.4 -4.1 0.9 0.9 -1.5 4.9 -2.9 4.9 -0.8 0 -1.5 -0.4 -1.5 -0.8z"></path>
  <path d="M20.2 206 c-8.4 -25 -15.2 -45.8 -15.2 -46.1 0 -0.9 32.9 -12.3 33.6 -11.7 0.2 0.3 -0.3 23.7 -1.3 51.9 l-1.8 51.4 -15.3 -45.5z"></path>
  <path d="M41 245.3 c-0.1 -8.1 2.1 -75.2 2.7 -82.3 l0.6 -7.5 14.3 29.4 c7.9 16.1 14.1 29.8 13.7 30.5 -0.9 1.4 -30.5 33.6 -30.9 33.6 -0.2 0 -0.4 -1.7 -0.4 -3.7z"></path>
  <path d="M215.3 194.7 c-17.7 -29.5 -32.1 -53.7 -31.9 -53.7 0.2 0 8.8 4.1 19.2 9.1 10.4 5 25.3 12.2 33.2 16 l14.2 6.8 -0.6 27.8 c-0.4 15.3 -0.9 32.3 -1.3 37.7 l-0.6 10 -32.2 -53.7z"></path>
  <path d="M246 136.3 c-2 -0.8 -6 -5.5 -6 -7 0 -0.7 -0.4 -1.3 -1 -1.3 -0.5 0 -1 -0.7 -1 -1.5 0 -0.8 -0.4 -1.5 -1 -1.5 -0.5 0 -1 -0.7 -1 -1.5 0 -0.8 -0.4 -1.5 -1 -1.5 -0.5 0 -1 -0.7 -1 -1.5 0 -0.8 -0.4 -1.5 -1 -1.5 -0.5 0 -1 -0.7 -1 -1.5 0 -0.8 -0.4 -1.5 -1 -1.5 -0.5 0 -1 -0.7 -1 -1.5 0 -0.8 -0.4 -1.5 -1 -1.5 -0.5 0 -1 -0.7 -1 -1.5 0 -0.8 -0.4 -1.5 -1 -1.5 -0.5 0 -1 -0.7 -1 -1.5 0 -0.8 -0.4 -1.5 -1 -1.5 -0.5 0 -1 -0.7 -1 -1.5 0 -0.8 -0.4 -1.5 -1 -1.5 -0.5 0 -1 -0.7 -1 -1.5 0 -0.8 -0.4 -1.5 -1 -1.5 -0.5 0 -1 -0.7 -1 -1.5 0 -0.8 -0.4 -1.5 -1 -1.5 -0.5 0 -1 -0.7 -1 -1.5 0 -0.8 -0.4 -1.5 -1 -1.5 -0.5 0 -1 -0.7 -1 -1.5 0 -0.8 -0.4 -1.5 -1 -1.5 -0.5 0 -1 -0.7 -1 -1.5 0 -0.8 -0.4 -1.5 -1 -1.5 -0.5 0 -1 -0.7 -1 -1.5 0 -0.8 -0.4 -1.5 -1 -1.5 -0.5 0 -1 -0.7 -1 -1.5 0 -0.8 -0.4 -1.5 -1 -1.5 -0.5 0 -1 -0.7 -1 -1.5 0 -4 -2.2 0.2 -9.9 19 -4.7 11.3 -8.9 20.6 -9.4 20.8 -0.6 0.2 -1 2.9 -1 6 l0 5.7 -3.8 0 c-3.6 0 -3.8 -0.2 -3 -2.2 0.5 -1.3 5.5 -13.3 11.1 -26.8 5.6 -13.5 10.8 -26.2 11.7 -28.2 0.8 -2.1 1.8 -3.8 2.2 -3.8 0.6 0 29.4 42.3 41.3 60.8 2.6 4 2.3 4.8 -1.2 3.5z"></path>
  <path d="M229.8 135.3 c-1 -0.2 -1.8 -1.1 -1.8 -1.9 0 -1.1 1.5 -1.4 6 -1.4 5.3 0 6 0.2 6 2 0 1.7 -0.6 2 -4.2 1.9 -2.4 -0.1 -5.1 -0.3 -6 -0.6z"></path>
  <path d="M210.8 134.3 c-1 -0.2 -1.8 -1.1 -1.8 -1.9 0 -1.1 1.6 -1.4 7 -1.4 6.3 0 7 0.2 7 2 0 1.8 -0.6 2 -5.2 1.9 -2.9 -0.1 -6.1 -0.3 -7 -0.6z"></path>
  <path d="M192.8 133.3 c-1 -0.2 -1.8 -1.1 -1.8 -1.9 0 -1.1 1.5 -1.4 6.5 -1.4 5.8 0 6.5 0.2 6.5 2 0 1.7 -0.6 2 -4.7 1.9 -2.7 -0.1 -5.6 -0.3 -6.5 -0.6z"></path>
  <path d="M147.3 108.3 c-15 -12 -27.1 -21.8 -27 -21.9 0.1 -0.2 12.1 -2.4 26.7 -4.9 14.6 -2.6 32.3 -5.7 39.5 -7 7.1 -1.3 13 -2.3 13.1 -2.2 0.2 0.2 -8.1 20.2 -19.7 48 -2.3 5.3 -4.4 9.7 -4.8 9.7 -0.3 0 -12.8 -9.8 -27.8 -21.7z"></path>
  <path d="M84.1 77.9 c-14.5 -2.1 -27.1 -3.9 -27.9 -4.1 -0.8 -0.2 12.6 -9.7 29.8 -21.1 17.1 -11.5 31.3 -20.7 31.5 -20.5 0.5 0.6 -5.7 48.3 -6.4 48.9 -0.3 0.4 -12.5 -1.1 -27 -3.2z"></path>
 </g>
 <g fill="#ffbfda">
  <path d="M246.8 447.2 c-0.9 -2.6 -3 -8.5 -4.6 -13.2 -17.7 -49.5 -27.1 -76.4 -26.9 -76.5 0.1 -0.1 8 3.2 17.6 7.4 l17.3 7.6 -0.7 39.5 c-0.3 21.7 -0.8 39.6 -0.9 39.7 -0.1 0.2 -0.9 -1.9 -1.8 -4.5z"></path>
  <path d="M102 354 c0 -1 -3.9 -24 -18.5 -110.5 -1.9 -10.9 -3.3 -20 -3.2 -20.1 0.1 -0.1 4.9 6.4 10.7 14.4 5.8 8.1 22.8 31.7 37.8 52.5 14.9 20.9 27.2 38.2 27.2 38.5 0 0.7 -48.4 24.6 -52.1 25.7 -1.1 0.4 -1.9 0.2 -1.9 -0.5z"></path>
  <path d="M113.1 260.6 c-16 -22.2 -29.1 -40.6 -29.1 -40.9 0 -0.2 4.9 1 10.9 2.6 l10.8 3 18.7 37.5 c10.2 20.7 18.4 37.7 18.2 37.9 -0.2 0.2 -13.5 -17.8 -29.5 -40.1z"></path>
  <path d="M220.5 248.5 c-7.1 -1.9 -13.3 -3.4 -13.7 -3.4 -0.5 -0.1 -0.8 -0.8 -0.8 -1.6 0 -1.8 3.7 -2 9.2 -0.3 3.2 0.9 4.1 0.9 4.8 -0.2 0.6 -1 2.6 -0.2 8.4 3.5 4.2 2.6 7.6 4.9 7.6 5.1 0 0.7 -2.3 0.2 -15.5 -3.1z"></path>
  <path d="M238.3 247.7 c-2.1 -1.4 -3.3 -3 -3.3 -4.4 0 -1.4 -0.6 -2.3 -1.5 -2.3 -1 0 -1.5 -1.1 -1.5 -3.5 0 -1.9 0.3 -3.5 0.8 -3.5 0.4 0 2.3 2.6 4.1 5.8 1.9 3.1 4.1 6.7 4.9 8 1.8 2.7 0.7 2.7 -3.5 -0.1z"></path>
  <path d="M198.8 243.3 c-3.3 -0.8 -2 -3.3 1.7 -3.3 2.8 0 3.5 0.4 3.5 2 0 2 -1.4 2.3 -5.2 1.3z"></path>
  <path d="M183.5 239.5 c-4.9 -1.2 -22.5 -5.5 -39 -9.4 -16.5 -4 -31.1 -7.6 -32.5 -8 -2.2 -0.7 -2.6 -1.5 -3.7 -9.7 -2.4 -16.8 -6.1 -45.9 -5.9 -46.1 0.5 -0.5 13.6 8.2 13.6 8.9 0 1.3 -6.8 0.9 -7.3 -0.4 -0.2 -0.7 -0.7 -1 -1.1 -0.7 -0.6 0.6 3.7 37.2 5.1 42.7 0.3 1.2 1 2.2 1.7 2.2 2.4 -0.1 28.1 6.5 28.4 7.2 0.2 0.4 1.6 0.8 3 0.8 3.6 0 29.6 6.2 30 7.2 0.2 0.4 1.4 0.8 2.8 0.8 1.3 0 5.7 0.7 9.9 1.7 6 1.3 7.5 2 7.5 3.5 0 2.3 -1.2 2.2 -12.5 -0.7z"></path>
  <path d="M226.8 240.2 c-3.7 -2.2 -3.5 -3.2 0.7 -3.2 3.1 0 3.5 0.3 3.5 2.5 0 2.9 -0.6 3 -4.2 0.7z"></path>
  <path d="M209 239 c0 -0.5 -0.7 -1 -1.5 -1 -0.8 0 -1.5 -0.4 -1.5 -1 0 -0.5 -0.7 -1 -1.5 -1 -0.8 0 -1.5 -0.7 -1.5 -1.5 0 -0.9 -0.9 -1.5 -2.5 -1.5 -1.4 0 -2.5 -0.4 -2.5 -1 0 -0.5 -0.7 -1 -1.5 -1 -0.8 0 -1.5 -0.4 -1.5 -1 0 -0.5 -0.7 -1 -1.5 -1 -0.9 0 -1.5 -0.9 -1.5 -2.5 0 -1.4 0.3 -2.5 0.6 -2.5 1.2 0 23.4 14.5 23.4 15.3 0 0.4 -1.6 0.7 -3.5 0.7 -1.9 0 -3.5 -0.4 -3.5 -1z"></path>
  <path d="M212.8 231.2 c-3.2 -2 -5.8 -4 -5.8 -4.4 0 -0.5 1.6 -0.8 3.5 -0.8 1.9 0 3.5 0.5 3.5 1 0 0.6 0.7 1 1.5 1 0.8 0 1.5 0.5 1.5 1 0 0.6 0.7 1 1.5 1 0.9 0 1.5 0.9 1.5 2.5 0 1.4 -0.3 2.5 -0.7 2.5 -0.5 0 -3.4 -1.7 -6.5 -3.8z"></path>
  <path d="M200.3 223.2 c-2.4 -1.5 -4.3 -3 -4.3 -3.4 0 -0.5 1.6 -0.8 3.5 -0.8 1.9 0 3.5 0.5 3.5 1 0 0.6 0.7 1 1.5 1 0.9 0 1.5 0.9 1.5 2.5 0 3.1 -0.5 3.1 -5.7 -0.3z"></path>
  <path d="M223 223.5 c0 -1.6 -0.6 -2.5 -1.5 -2.5 -0.9 0 -1.5 -0.9 -1.5 -2.5 0 -1.6 -0.6 -2.5 -1.5 -2.5 -0.9 0 -1.5 -0.9 -1.5 -2.5 0 -1.6 -0.6 -2.5 -1.5 -2.5 -0.9 0 -1.5 -0.9 -1.5 -2.5 0 -1.6 -0.6 -2.5 -1.5 -2.5 -1 0 -1.5 -1.1 -1.5 -3.5 0 -1.9 0.3 -3.5 0.8 -3.5 0.7 0 16.2 25.2 16.2 26.4 0 0.3 -1.1 0.6 -2.5 0.6 -2 0 -2.5 -0.5 -2.5 -2.5z"></path>
  <path d="M184 223 c0 -0.5 -0.7 -1 -1.5 -1 -0.8 0 -1.5 -0.4 -1.5 -0.9 0 -0.5 -1.1 -1.2 -2.5 -1.5 -1.6 -0.4 -2.5 -1.3 -2.5 -2.6 0 -1.6 -0.7 -2 -3 -2 -1.6 0 -3 -0.4 -3 -1 0 -0.5 -0.7 -1 -1.5 -1 -0.9 0 -1.5 -0.9 -1.5 -2.5 0 -1.4 0.3 -2.5 0.6 -2.5 1.2 0 23.4 14.5 23.4 15.3 0 0.4 -1.6 0.7 -3.5 0.7 -1.9 0 -3.5 -0.4 -3.5 -1z"></path>
  <path d="M189.3 216.2 c-2.4 -1.5 -4.3 -3 -4.3 -3.4 0 -0.5 1.6 -0.8 3.5 -0.8 1.9 0 3.5 0.5 3.5 1 0 0.6 0.7 1 1.5 1 0.9 0 1.5 0.9 1.5 2.5 0 3.1 -0.5 3.1 -5.7 -0.3z"></path>
  <path d="M168.3 202.7 c-6.2 -3.9 -11.3 -7.5 -11.3 -7.9 0 -0.5 1.6 -0.8 3.5 -0.8 1.9 0 3.5 0.5 3.5 1 0 0.6 0.7 1 1.5 1 0.8 0 1.5 0.5 1.5 1 0 0.6 0.7 1 1.5 1 0.8 0 1.5 0.7 1.5 1.5 0 0.9 0.9 1.5 2.5 1.5 1.8 0 2.5 0.5 2.5 2 0 1.6 0.7 2 3 2 2.5 0 3 0.4 3 2.5 0 1.4 -0.3 2.5 -0.7 2.5 -0.5 0 -5.9 -3.3 -12 -7.3z"></path>
  <path d="M75.3 207.4 c-0.6 -1 -0.8 -2.5 -0.6 -3.1 0.3 -0.7 0 -1.3 -0.6 -1.3 -0.9 0 -4.1 -5 -4.1 -6.5 0 -0.3 1.1 -0.5 2.5 -0.5 1.8 0 2.5 0.5 2.5 1.9 0 1.3 0.8 2.1 2.4 2.3 l2.4 0.3 -1.8 4.4 c-1.5 4 -1.8 4.3 -2.7 2.5z"></path>
  <path d="M159 207 c0 -0.5 -0.7 -1 -1.5 -1 -0.8 0 -1.5 -0.4 -1.5 -0.9 0 -0.5 -1.1 -1.2 -2.5 -1.5 -1.4 -0.4 -2.5 -1.1 -2.5 -1.6 0 -0.6 -0.7 -1 -1.5 -1 -0.8 0 -1.5 -0.9 -1.5 -2 0 -1.6 -0.7 -2 -3 -2 -2 0 -3 -0.5 -3 -1.5 0 -0.9 -0.9 -1.5 -2.5 -1.5 -1.4 0 -2.5 -0.4 -2.5 -1 0 -0.5 -0.7 -1 -1.5 -1 -0.8 0 -1.5 -0.4 -1.5 -1 0 -0.5 -0.7 -1 -1.5 -1 -0.8 0 -1.5 -0.4 -1.5 -0.9 0 -0.5 -1.1 -1.2 -2.5 -1.5 -1.6 -0.4 -2.5 -1.3 -2.5 -2.6 0 -1.6 -0.7 -2 -3 -2 -1.6 0 -3 -0.4 -3 -1 0 -0.5 -0.7 -1 -1.5 -1 -0.9 0 -1.5 -0.9 -1.5 -2.5 0 -1.4 0.3 -2.5 0.6 -2.5 1.2 0 48.4 30.5 48.4 31.3 0 0.4 -1.6 0.7 -3.5 0.7 -1.9 0 -3.5 -0.4 -3.5 -1z"></path>
  <path d="M147.3 189.2 c-4 -2.6 -7.3 -5 -7.3 -5.4 0 -0.5 1.6 -0.8 3.5 -0.8 2.8 0 3.5 0.4 3.5 2 0 1.6 0.7 2 3 2 1.7 0 3 0.5 3 1 0 0.6 0.7 1 1.5 1 0.9 0 1.5 0.9 1.5 2.5 0 1.4 -0.3 2.5 -0.7 2.5 -0.5 0 -4.1 -2.2 -8 -4.8z"></path>
  <path d="M63.7 184.3 c-6.1 -12.5 -6.1 -12.3 -3.2 -12.3 1.8 0 2.5 0.5 2.5 1.9 0 1.1 0.4 2.1 0.9 2.3 1.6 0.6 6.1 10.7 6.1 13.8 0 5.1 -1.8 3.4 -6.3 -5.7z"></path>
  <path d="M81 189.3 c0 -3.3 3 -12.3 4.2 -12.3 0.4 0 0.8 -1.1 0.8 -2.5 0 -1.6 0.6 -2.5 1.5 -2.5 1 0 1.5 -1 1.5 -3 0 -1.6 0.8 -5.1 1.9 -7.7 1 -2.6 4.2 -16.3 7.1 -30.3 2.8 -14 5.4 -26.3 5.6 -27.2 0.4 -1.4 -0.1 -1.8 -2.5 -1.8 -2.6 0 -3.1 0.4 -3.1 2.5 0 2.1 -0.5 2.5 -3 2.5 -2.5 0 -3 0.4 -3 2.5 0 2 -0.5 2.5 -2.4 2.5 -1.8 0 -2.5 0.6 -2.8 2.3 -0.2 1.5 -1.1 2.3 -3 2.5 -1.9 0.2 -2.8 1 -3 2.5 -0.2 1.6 -1.1 2.3 -3 2.5 -2 0.2 -2.8 0.9 -2.8 2.3 0 1.4 -0.7 1.9 -3 1.9 -2.5 0 -3 0.4 -3 2.5 0 2 -0.5 2.5 -2.5 2.5 -1.8 0 -2.5 0.5 -2.5 2 0 1.5 -0.7 2 -2.9 2 -2.5 0 -3 0.4 -3.3 2.8 -0.2 2.1 -0.9 2.8 -3 3 -2 0.2 -2.8 0.9 -2.8 2.3 0 1 -0.7 1.9 -1.5 1.9 -0.8 0 -1.5 0.5 -1.5 1 0 0.6 0.5 1 1 1 0.6 0 1 1.4 1 3 0 2 0.5 3 1.5 3 1 0 1.5 1.1 1.5 3.5 0 1.9 -0.4 3.5 -1 3.5 -1.7 0 -8.3 -14.2 -7.4 -15.7 1 -1.5 63.7 -53.3 64.1 -53 0.2 0.3 -2.1 12.1 -9.2 46.4 -3.9 19 -5.5 24.5 -10.8 38 -6.2 15.4 -8.7 19.3 -8.7 13.6z"></path>
  <path d="M202 188.5 c0 -1.6 -0.6 -2.5 -1.5 -2.5 -0.9 0 -1.5 -0.9 -1.5 -2.5 0 -1.6 -0.6 -2.5 -1.5 -2.5 -0.9 0 -1.5 -0.9 -1.5 -2.5 0 -1.6 -0.6 -2.5 -1.5 -2.5 -0.9 0 -1.5 -0.9 -1.5 -2.5 0 -1.6 -0.6 -2.5 -1.5 -2.5 -0.9 0 -1.5 -0.9 -1.5 -2.5 0 -1.6 -0.6 -2.5 -1.5 -2.5 -0.9 0 -1.5 -0.9 -1.5 -2.5 0 -1.6 -0.6 -2.5 -1.5 -2.5 -0.9 0 -1.5 -0.9 -1.5 -2.5 0 -1.6 -0.6 -2.5 -1.5 -2.5 -1 0 -1.5 -1.1 -1.5 -3.5 0 -1.9 0.3 -3.5 0.8 -3.5 0.7 0 25.2 40.2 25.2 41.4 0 0.3 -1.1 0.6 -2.5 0.6 -2 0 -2.5 -0.5 -2.5 -2.5z"></path>
  <path d="M134.8 181.2 c-3.7 -2.2 -3.5 -3.2 0.7 -3.2 3.1 0 3.5 0.3 3.5 2.5 0 2.9 -0.6 3 -4.2 0.7z"></path>
  <path d="M123.8 174.2 c-3.2 -2 -5.8 -4 -5.8 -4.4 0 -0.5 1.6 -0.8 3.5 -0.8 1.9 0 3.5 0.5 3.5 1 0 0.6 0.7 1 1.5 1 0.8 0 1.5 0.5 1.5 1 0 0.6 0.7 1 1.5 1 0.9 0 1.5 0.9 1.5 2.5 0 1.4 -0.3 2.5 -0.7 2.5 -0.5 0 -3.4 -1.7 -6.5 -3.8z"></path>
  <path d="M111.3 166.2 c-2.4 -1.5 -4.3 -3 -4.3 -3.4 0 -0.5 1.6 -0.8 3.5 -0.8 1.9 0 3.5 0.5 3.5 1 0 0.6 0.7 1 1.5 1 0.9 0 1.5 0.9 1.5 2.5 0 3.1 -0.5 3.1 -5.7 -0.3z"></path>
  <path d="M116 158.7 c0 -0.8 1.6 -1.8 3.5 -2.4 3.3 -1.1 3.5 -1 3.5 1.3 0 2.1 -0.5 2.4 -3.5 2.4 -2.2 0 -3.5 -0.5 -3.5 -1.3z"></path>
  <path d="M140 150.7 c0 -0.8 1.6 -1.8 3.5 -2.4 3.3 -1.1 3.5 -1 3.5 1.3 0 2.1 -0.5 2.4 -3.5 2.4 -2.2 0 -3.5 -0.5 -3.5 -1.3z"></path>
  <path d="M175.6 146.4 c-0.9 -2.3 -0.7 -7.4 0.2 -7.4 0.8 0 5.2 7.1 5.2 8.4 0 1.4 -4.8 0.5 -5.4 -1z"></path>
  <path d="M155 145.7 c0 -0.8 1.6 -1.8 3.5 -2.4 3.3 -1.1 3.5 -1 3.5 1.3 0 2.1 -0.5 2.4 -3.5 2.4 -2.2 0 -3.5 -0.5 -3.5 -1.3z"></path>
  <path d="M164 142.7 c0 -0.8 1.6 -1.8 3.5 -2.4 3.3 -1.1 3.5 -1 3.5 1.3 0 2.1 -0.5 2.4 -3.5 2.4 -2.2 0 -3.5 -0.5 -3.5 -1.3z"></path>
  <path d="M45 137.4 c0 -1.5 7.2 -53.1 7.8 -56 l0.7 -3.1 25.5 3.7 c14 2.1 26.3 3.9 27.3 4.1 1.2 0.3 -7.3 7.8 -26.9 23.9 -35.7 29.3 -34.4 28.3 -34.4 27.4z"></path>
 </g>
 <g fill="#dcdaff">
  <path d="M254.2 433 c0 -15.7 0.4 -35.8 0.7 -44.7 l0.6 -16.3 19 -11.4 c10.5 -6.3 19.1 -11.3 19.2 -11.2 0.2 0.2 -35.6 101.7 -39 110.6 -0.3 0.8 -0.5 -11.3 -0.5 -27z"></path>
  <path d="M267 440.8 c0 -0.4 6.6 -19 14.6 -41.5 8 -22.4 15.4 -43.5 16.6 -46.8 1.1 -3.3 2.6 -6.6 3.3 -7.3 1.5 -1.6 30.8 -19.3 31.2 -18.8 0.2 0.1 -3.7 7.2 -8.5 15.7 -4.9 8.5 -19.6 34.1 -32.7 56.9 -24 41.9 -24.5 42.8 -24.5 41.8z"></path>
  <path d="M367.2 340.7 c-12.2 -12.2 -22.2 -22.6 -22.2 -23 0 -0.4 14.7 -17.9 32.8 -38.9 18 -20.9 34.5 -40.2 36.7 -42.9 2.1 -2.6 4.1 -4.6 4.3 -4.4 0.2 0.2 -1 6.6 -2.7 14.2 -4.2 19.2 -25.1 116.2 -25.1 116.8 0 1.7 -3.8 -1.8 -23.8 -21.8z"></path>
  <path d="M299.7 338.3 c-0.5 -0.9 -6.5 -11.7 -8.2 -14.8 -0.6 -1.1 -2.3 -3.9 -3.8 -6.2 -1.5 -2.4 -2.7 -4.6 -2.7 -5.1 0 -0.4 -2 -3.8 -4.5 -7.6 -2.4 -3.7 -4.7 -7.7 -5.1 -8.9 -0.4 -1.2 -1.3 -2.7 -2.1 -3.5 -0.8 -0.8 -1.7 -2.7 -2 -4.3 -0.3 -1.5 -1.2 -3 -2 -3.3 -0.8 -0.3 -1.1 -1 -0.8 -1.6 0.3 -0.6 -0.1 -1.3 -0.9 -1.6 -0.9 -0.3 -1.3 -1 -1 -1.5 0.3 -0.5 0.1 -0.9 -0.4 -0.9 -1.2 0 -6.3 -9.5 -5.6 -10.3 0.3 -0.3 17.5 10.7 38.2 24.5 32.1 21.4 37.3 25.2 35.6 26 -1 0.6 -8.9 5.3 -17.5 10.4 -8.7 5.2 -15.9 9.4 -16.2 9.4 -0.3 0 -0.8 -0.3 -1 -0.7z"></path>
  <path d="M297.8 286.7 c-22.4 -15 -40.4 -27.5 -40 -27.8 0.5 -0.5 51.7 -14.8 87.7 -24.5 2.8 -0.7 13.3 -3.6 23.5 -6.3 10.1 -2.8 18.6 -4.8 18.8 -4.6 0.7 0.7 -47.2 90.4 -48.3 90.4 -0.5 0 -19.3 -12.2 -41.7 -27.2z"></path>
  <path d="M452.9 248.8 c-7.9 -8.4 -17 -18.1 -20.3 -21.5 l-5.9 -6.3 15.9 -33.1 c8.7 -18.1 16 -32.2 16.1 -31.2 0.2 1 1.2 12.6 2.3 25.8 2.4 29.6 4.7 56.6 5.9 70.5 0.5 5.8 0.8 10.6 0.7 10.7 -0.2 0.2 -6.8 -6.6 -14.7 -14.9z"></path>
  <path d="M272.5 248.2 c1.7 -1 14.3 -8.4 28 -16.4 81.7 -47.6 97.2 -56.6 99.1 -57.6 2.1 -1.1 2.1 -0.9 -0.8 11.1 -1.5 6.7 -3.8 16.5 -5 21.9 l-2.2 9.6 -15.6 4.2 c-8.5 2.3 -17.5 4.7 -20 5.4 -2.5 0.8 -7.2 2.1 -10.5 3 -3.3 0.9 -20.8 5.7 -39 10.6 -18.1 5 -33.9 9.3 -35 9.6 -1.2 0.3 -0.8 -0.2 1 -1.4z"></path>
  <path d="M405.7 150.8 c-1 -7.3 -3.3 -23.6 -5.1 -36.3 l-3.2 -23 9.6 -0.3 c5.2 -0.2 18.6 0 29.8 0.3 l20.2 0.7 0.2 18.4 c0.1 10.1 0.3 21.8 0.3 26 l0 7.6 -24.5 9.9 c-13.5 5.4 -24.7 9.9 -25 9.9 -0.3 0 -1.3 -6 -2.3 -13.2z"></path>
 </g>
 <g fill="#ff9cff">
  <path d="M34.6 238.5 c0.3 -3.8 0.7 -7.1 1 -7.4 0.8 -0.8 0.3 10.4 -0.6 12.4 -0.5 1.2 -0.7 -0.6 -0.4 -5z"></path>
  <path d="M213.5 134.4 c-13.2 -0.8 -25.9 -1.6 -28.2 -2 l-4.2 -0.5 1.6 -4.2 c0.9 -2.3 6 -14.8 11.4 -27.7 5.3 -12.9 10 -24.5 10.4 -25.7 0.3 -1.3 0.9 -2.3 1.3 -2.3 0.4 0 10.3 14.4 22 32 l21.2 32 -5.7 -0.1 c-3.2 -0.1 -16.6 -0.8 -29.8 -1.5z"></path>
 </g>
 <g fill="#fd9dce">
  <path d="M236.5 442.7 c-7.4 -11.6 -36.9 -56.7 -49 -75.2 -16.8 -25.6 -20.6 -31.7 -19.6 -31.3 0.5 0.1 9.9 4.3 20.8 9.2 l19.9 8.8 6.8 19.2 c3.8 10.5 9.2 25.9 12.1 34.1 3 8.3 7.2 20.2 9.5 26.5 4.6 12.6 6.1 17.2 5.7 17.6 -0.1 0.1 -2.9 -3.9 -6.2 -8.9z"></path>
  <path d="M242.7 423.3 c-0.4 -0.3 -0.7 -1.2 -0.7 -2 0 -1.7 2.6 -1.7 3.3 0.1 0.8 2.1 -1.1 3.5 -2.6 1.9z"></path>
  <path d="M243 414.6 c0 -2.4 1.7 -2.8 2.3 -0.6 0.3 1.3 0 2 -0.9 2 -0.8 0 -1.4 -0.6 -1.4 -1.4z"></path>
  <path d="M249 412.1 c0 -1.1 -0.4 -2.3 -1 -2.6 -0.5 -0.3 -1 -1.1 -1 -1.6 0 -0.6 0.4 -0.7 1 -0.4 0.6 0.3 1.1 -3.9 1.3 -11.2 l0.3 -11.8 0.2 14.8 c0.1 8.1 0 14.7 -0.3 14.7 -0.3 0 -0.5 -0.9 -0.5 -1.9z"></path>
  <path d="M215.7 359.8 c-0.4 -1.2 -0.4 -2.4 -0.2 -2.7 0.3 -0.2 0.5 0.1 0.5 0.8 0 0.7 0.4 1 0.9 0.7 0.5 -0.4 0.8 0.1 0.7 0.9 -0.4 2.5 -1.3 2.7 -1.9 0.3z"></path>
  <path d="M79.5 324.2 c-8.8 -13.6 -21.5 -33.4 -28.3 -44 -6.8 -10.6 -12.2 -19.6 -12 -20.1 0.4 -1.2 35 -39.2 35.3 -38.9 0.3 0.3 3 16 4.5 25.8 0.5 3 1.8 10.7 2.9 17 3.8 21.7 12.3 71.5 13.3 77.8 0.5 3.5 0.8 6.5 0.6 6.8 -0.2 0.2 -7.6 -10.8 -16.3 -24.4z"></path>
  <path d="M188.5 340.1 c-10.5 -4.7 -20.1 -9.1 -21.4 -9.6 -2.1 -1 0.5 -3.3 36.5 -32 21.3 -17.1 39.2 -31.1 39.8 -31.3 0.7 -0.2 0.8 -0.1 0.1 0.5 -0.5 0.4 -1 1.3 -1 1.8 0 2.3 -33.1 79.5 -34 79.4 -0.5 -0.1 -9.6 -4 -20 -8.8z"></path>
  <path d="M136.5 276.9 c-13.4 -27.1 -24.3 -49.4 -24.1 -49.6 0.1 -0.2 6.5 1.2 14.2 3.1 7.6 1.9 19.5 4.8 26.4 6.5 79.6 19.2 92.1 22.3 91.8 22.6 -0.4 0.3 -80.8 64.4 -82.5 65.8 -1 0.7 -7.3 -11.1 -25.8 -48.4z"></path>
  <path d="M161.8 234.2 c-3.4 -0.7 -2 -3.2 1.7 -3.2 2.8 0 3.5 0.4 3.5 1.9 0 1.9 -1 2.2 -5.2 1.3z"></path>
  <path d="M91.5 216.7 c-6 -1.7 -11.2 -3.2 -11.4 -3.3 -0.2 -0.2 3.6 -10.3 8.5 -22.6 l8.9 -22.2 1.1 7.9 c4.6 31.3 5.9 43.5 4.8 43.4 -0.5 -0.1 -5.8 -1.5 -11.9 -3.2z"></path>
  <path d="M102.3 153.4 c1 -6.6 12.7 -62.7 13.2 -63.2 0.5 -0.6 0.2 -0.8 32.3 24.8 12.7 10.2 22.8 18.8 22.4 19.1 -0.4 0.4 -15.3 5.5 -33.2 11.4 -17.9 5.9 -33.1 11 -33.9 11.3 -1.1 0.4 -1.3 -0.3 -0.8 -3.4z"></path>
  <path d="M117 79.5 c0 -2.7 5.8 -48.7 6.2 -49.1 0.2 -0.1 10.7 4.7 23.3 10.7 12.7 6 29.9 14.2 38.3 18.1 11.4 5.4 14.9 7.4 13.5 7.9 -1 0.4 -8.5 1.9 -16.8 3.3 -27.8 4.8 -61 10.6 -62.7 11 -1.3 0.3 -1.8 -0.2 -1.8 -1.9z"></path>
 </g>
 <g fill="#ffdee3">
  <path d="M221 248.4 c-12.7 -3.2 -23.5 -5.8 -83.3 -20.4 -13.6 -3.3 -25.4 -6 -26.1 -6 -1.9 0 -2 -0.9 -5.6 -28.5 -1.7 -13.2 -3.3 -24.8 -3.6 -25.9 -0.7 -2.1 -1.9 -2.8 13.9 7.4 24.1 15.4 34.6 22.2 47.7 30.5 7.4 4.7 24.8 15.8 38.5 24.7 13.8 8.8 27 17.3 29.5 18.9 5.5 3.5 5.7 3.5 -11 -0.7z"></path>
  <path d="M259.6 248.8 c2.1 -3.5 73.8 -108.5 74.8 -109.6 0.9 -1 7.9 1.9 33.4 13.5 17.7 8.2 32.1 15 32.2 15.3 0 0.3 -2.4 1.8 -5.3 3.4 -5.3 3 -104.3 60.6 -124.1 72.2 -5.9 3.5 -11 6.4 -11.3 6.4 -0.2 0 -0.1 -0.6 0.3 -1.2z"></path>
  <path d="M213.5 231.5 c-14.8 -9.5 -33.2 -21.3 -40.8 -26.2 -7.6 -4.8 -17.2 -11 -21.5 -13.8 -4.2 -2.7 -15.8 -10.1 -25.7 -16.4 -9.9 -6.3 -18.6 -12 -19.3 -12.6 -1.1 -1 5.7 -3.6 33.8 -13 19.4 -6.4 35.6 -11.3 36 -10.8 0.5 0.6 64.1 106.5 65.7 109.6 1 1.8 -2.9 -0.5 -28.2 -16.8z"></path>
  <path d="M70.5 197.8 c-2.7 -5.7 -9.3 -19.2 -14.6 -30.1 -5.4 -10.8 -10 -20.5 -10.3 -21.5 -0.5 -1.3 3 -4.7 14.6 -14.2 8.3 -6.9 22.6 -18.7 31.7 -26.2 9.1 -7.6 16.9 -13.8 17.3 -13.8 0.3 0 -0.2 3.7 -1.2 8.2 -1 4.6 -4.1 19.8 -7 33.8 -5 24.6 -5.6 26.3 -14.8 49.8 -5.3 13.3 -9.8 24.2 -10.2 24.2 -0.3 0 -2.8 -4.6 -5.5 -10.2z"></path>
 </g>
</svg><style>@media (prefers-color-scheme: light) { :root { filter: none; } }
</style></svg>